<svg xmlns="http://www.w3.org/2000/svg" width="302" height="252.023" viewBox="0 0 302 252.023">
  <g id="Group_434" data-name="Group 434" transform="translate(7 -652)">
    <g id="Group_433" data-name="Group 433" transform="translate(-7 652)">
      <path id="Path_1130" data-name="Path 1130" d="M280.438,138.781h-1.371V101.217a21.741,21.741,0,0,0-21.741-21.741H177.741A21.741,21.741,0,0,0,156,101.217V307.3a21.741,21.741,0,0,0,21.741,21.741h79.585A21.741,21.741,0,0,0,279.067,307.3V165.519h1.371Z" transform="translate(-156 -79.476)" fill="#e6e6e6"/>
      <path id="Path_1131" data-name="Path 1131" d="M269.843,96.107H259.455a7.714,7.714,0,0,1-7.142,10.627H206.721a7.714,7.714,0,0,1-7.142-10.627h-9.7a16.236,16.236,0,0,0-16.236,16.236V318.12a16.236,16.236,0,0,0,16.236,16.236h79.967a16.236,16.236,0,0,0,16.236-16.236V112.344a16.236,16.236,0,0,0-16.236-16.236Z" transform="translate(-167.641 -90.451)" fill="#fff"/>
      <path id="Path_1132" data-name="Path 1132" d="M259.179,219.111H254.4a.633.633,0,0,0-.633.633v2.1a.633.633,0,0,0,.633.633h.791v3.14h3.192v-3.14h.791a.633.633,0,0,0,.633-.633v-2.1A.633.633,0,0,0,259.179,219.111Z" transform="translate(-220.52 -171.622)" fill="#e6e6e6"/>
      <path id="Path_1133" data-name="Path 1133" d="M255.433,244.507a24.547,24.547,0,0,1-4.27-14.554.518.518,0,0,0-.4-.517v-.906h-5.043v.893h-.069a.517.517,0,0,0-.517.518q0,.019,0,.038a22.4,22.4,0,0,1-4.024,14.9,1.426,1.426,0,0,0-.258.864L241.4,262.8a1.477,1.477,0,0,0,1.464,1.425H254.27a1.477,1.477,0,0,0,1.465-1.45l.212-16.56A2.989,2.989,0,0,0,255.433,244.507Z" transform="translate(-211.992 -177.839)" fill="#e6e6e6"/>
      <path id="Path_1134" data-name="Path 1134" d="M257.184,292.166h-9.928a1.019,1.019,0,0,0-1.007,1.174l1.5,9.751h8.615l1.822-9.719a1.019,1.019,0,0,0-1-1.207Z" transform="translate(-215.548 -219.832)" fill="#fff"/>
      <path id="Path_1135" data-name="Path 1135" d="M415.464,369.345h-4.775a.633.633,0,0,0-.633.633v2.1a.633.633,0,0,0,.633.633h.791v3.14h3.192v-3.14h.791a.633.633,0,0,0,.633-.633v-2.1a.633.633,0,0,0-.633-.633Z" transform="translate(-323.654 -270.763)" fill="#e6e6e6"/>
      <path id="Path_1136" data-name="Path 1136" d="M411.718,394.743a24.547,24.547,0,0,1-4.27-14.554.518.518,0,0,0-.4-.517v-.905H402v.893h-.069a.517.517,0,0,0-.517.518c0,.013,0,.025,0,.038a22.4,22.4,0,0,1-4.024,14.9,1.426,1.426,0,0,0-.258.864l.551,17.056a1.476,1.476,0,0,0,1.464,1.425h11.406a1.477,1.477,0,0,0,1.465-1.45l.212-16.56a2.989,2.989,0,0,0-.513-1.707Z" transform="translate(-315.125 -276.981)" fill="#693"/>
      <path id="Path_1137" data-name="Path 1137" d="M413.468,442.4H403.54a1.019,1.019,0,0,0-1.007,1.174l1.5,9.751h8.615l1.822-9.719a1.019,1.019,0,0,0-1-1.207Z" transform="translate(-318.682 -318.974)" fill="#fff"/>
      <path id="Path_1138" data-name="Path 1138" d="M244.958,581.733h-2.265a.3.3,0,0,0-.3.3v.994a.3.3,0,0,0,.3.3h.375v1.49h1.514v-1.49h.375a.3.3,0,0,0,.3-.3v-.994A.3.3,0,0,0,244.958,581.733Z" transform="translate(-213.011 -410.92)" fill="#e6e6e6"/>
      <path id="Path_1139" data-name="Path 1139" d="M243.181,593.78a11.644,11.644,0,0,1-2.026-6.9.246.246,0,0,0-.192-.245v-.43h-2.392v.424h-.033a.245.245,0,0,0-.245.246c0,.006,0,.012,0,.018a10.626,10.626,0,0,1-1.909,7.067.676.676,0,0,0-.122.41l.262,8.09a.7.7,0,0,0,.694.676h5.41a.7.7,0,0,0,.695-.688l.1-7.855A1.417,1.417,0,0,0,243.181,593.78Z" transform="translate(-208.966 -413.869)" fill="#e6e6e6"/>
      <rect id="Rectangle_1502" data-name="Rectangle 1502" width="5.162" height="2.581" transform="translate(28.274 182.885)" fill="#fff"/>
      <path id="Path_1140" data-name="Path 1140" d="M275.958,581.733h-2.265a.3.3,0,0,0-.3.3v.994a.3.3,0,0,0,.3.3h.375v1.49h1.514v-1.49h.375a.3.3,0,0,0,.3-.3v-.994A.3.3,0,0,0,275.958,581.733Z" transform="translate(-233.468 -410.92)" fill="#e6e6e6"/>
      <path id="Path_1141" data-name="Path 1141" d="M274.181,593.78a11.644,11.644,0,0,1-2.026-6.9.246.246,0,0,0-.192-.245v-.43h-2.392v.424h-.033a.245.245,0,0,0-.245.246c0,.006,0,.012,0,.018a10.626,10.626,0,0,1-1.909,7.067.676.676,0,0,0-.122.41l.262,8.09a.7.7,0,0,0,.694.676h5.41a.7.7,0,0,0,.695-.688l.1-7.855A1.418,1.418,0,0,0,274.181,593.78Z" transform="translate(-229.423 -413.869)" fill="#e6e6e6"/>
      <rect id="Rectangle_1503" data-name="Rectangle 1503" width="5.162" height="2.581" transform="translate(38.817 182.885)" fill="#fff"/>
      <path id="Path_1142" data-name="Path 1142" d="M306.958,581.733h-2.265a.3.3,0,0,0-.3.3v.994a.3.3,0,0,0,.3.3h.375v1.49h1.514v-1.49h.375a.3.3,0,0,0,.3-.3v-.994A.3.3,0,0,0,306.958,581.733Z" transform="translate(-253.926 -410.92)" fill="#e6e6e6"/>
      <path id="Path_1143" data-name="Path 1143" d="M305.181,593.78a11.644,11.644,0,0,1-2.026-6.9.245.245,0,0,0-.192-.245v-.43h-2.392v.424h-.033a.245.245,0,0,0-.245.246c0,.006,0,.012,0,.018a10.626,10.626,0,0,1-1.909,7.067.676.676,0,0,0-.122.41l.262,8.09a.7.7,0,0,0,.694.676h5.41a.7.7,0,0,0,.695-.688l.1-7.855A1.418,1.418,0,0,0,305.181,593.78Z" transform="translate(-249.88 -413.869)" fill="#e6e6e6"/>
      <rect id="Rectangle_1504" data-name="Rectangle 1504" width="5.162" height="2.581" transform="translate(49.36 182.885)" fill="#fff"/>
      <path id="Path_1144" data-name="Path 1144" d="M391.074,523.613H386.3a.633.633,0,0,0-.633.633v2.1a.633.633,0,0,0,.633.633h.791v3.14h3.192v-3.14h.791a.633.633,0,0,0,.633-.633v-2.1A.633.633,0,0,0,391.074,523.613Z" transform="translate(-307.559 -372.566)" fill="#e6e6e6"/>
      <path id="Path_1145" data-name="Path 1145" d="M387.328,549.01a24.547,24.547,0,0,1-4.27-14.554.518.518,0,0,0-.4-.517v-.906h-5.043v.893h-.069a.517.517,0,0,0-.517.518c0,.013,0,.025,0,.038a22.4,22.4,0,0,1-4.024,14.9,1.426,1.426,0,0,0-.258.864L373.3,567.3a1.477,1.477,0,0,0,1.464,1.425h11.406a1.477,1.477,0,0,0,1.465-1.45l.212-16.56A2.989,2.989,0,0,0,387.328,549.01Z" transform="translate(-299.031 -378.784)" fill="#e6e6e6"/>
      <path id="Path_1146" data-name="Path 1146" d="M389.079,596.668h-9.928a1.019,1.019,0,0,0-1.007,1.174l1.5,9.751h8.615l1.822-9.719a1.019,1.019,0,0,0-1-1.207Z" transform="translate(-302.587 -420.776)" fill="#fff"/>
      <path id="Path_1147" data-name="Path 1147" d="M354.005,266.747H325.544c1.99-10.758,1.532-23.749,0-37.72h28.461C352.514,243,352.068,255.989,354.005,266.747Z" transform="translate(-267.884 -178.166)" fill="#e6e6e6"/>
      <circle id="Ellipse_66" data-name="Ellipse 66" cx="6.858" cy="6.858" r="6.858" transform="translate(65.204 61.834)" fill="#fff"/>
      <path id="Path_1148" data-name="Path 1148" d="M277.375,413.957H248.914c1.99-10.758,1.532-23.749,0-37.72h28.461C275.884,390.208,275.439,403.2,277.375,413.957Z" transform="translate(-217.315 -275.311)" fill="#e6e6e6"/>
      <circle id="Ellipse_67" data-name="Ellipse 67" cx="6.858" cy="6.858" r="6.858" transform="translate(39.143 111.899)" fill="#fff"/>
      <path id="Path_1149" data-name="Path 1149" d="M401.394,273.8H372.933c1.99-10.758,1.532-23.749,0-37.72h28.461C399.9,250.056,399.458,263.047,401.394,273.8Z" transform="translate(-299.156 -182.824)" fill="#e6e6e6"/>
      <circle id="Ellipse_68" data-name="Ellipse 68" cx="6.858" cy="6.858" r="6.858" transform="translate(81.321 64.234)" fill="#fff"/>
      <path id="Path_1150" data-name="Path 1150" d="M401.394,268.764H372.933c1.99-10.758,1.532-23.749,0-37.72h28.461C399.9,245.015,399.458,258.006,401.394,268.764Z" transform="translate(-299.156 -179.497)" fill="#e6e6e6"/>
      <circle id="Ellipse_69" data-name="Ellipse 69" cx="6.858" cy="6.858" r="6.858" transform="translate(81.321 62.52)" fill="#fff"/>
      <path id="Path_1151" data-name="Path 1151" d="M401.394,273.8H372.933c1.99-10.758,1.532-23.749,0-37.72h28.461C399.9,250.056,399.458,263.047,401.394,273.8Z" transform="translate(-299.156 -182.824)" fill="#e6e6e6"/>
      <circle id="Ellipse_70" data-name="Ellipse 70" cx="6.858" cy="6.858" r="6.858" transform="translate(81.321 64.234)" fill="#fff"/>
      <rect id="Rectangle_1505" data-name="Rectangle 1505" width="93.271" height="10.287" transform="translate(15.483 86.523)" fill="#e6e6e6"/>
      <rect id="Rectangle_1506" data-name="Rectangle 1506" width="93.271" height="10.287" transform="translate(15.483 137.617)" fill="#e6e6e6"/>
      <rect id="Rectangle_1507" data-name="Rectangle 1507" width="93.271" height="10.287" transform="translate(15.483 188.71)" fill="#e6e6e6"/>
      <path id="Path_1152" data-name="Path 1152" d="M907.767,665.429,884.53,648.994c7.837-7.634,14.965-18.5,21.781-30.8l23.237,16.435C920.263,645.178,912.4,655.527,907.767,665.429Z" transform="translate(-636.764 -434.984)" fill="#693"/>
      <circle id="Ellipse_71" data-name="Ellipse 71" cx="6.858" cy="6.858" r="6.858" transform="translate(264.151 199.231)" fill="#fff"/>
      <path id="Path_1153" data-name="Path 1153" d="M617.657,536.554h-2.551a.338.338,0,0,0-.338.338v1.12a.338.338,0,0,0,.338.338h.423v1.677h1.705V538.35h.423a.338.338,0,0,0,.338-.338v-1.12A.338.338,0,0,0,617.657,536.554Z" transform="translate(-458.745 -381.106)" fill="#e6e6e6"/>
      <path id="Path_1154" data-name="Path 1154" d="M615.655,550.122a13.114,13.114,0,0,1-2.281-7.775.277.277,0,0,0-.216-.276v-.484h-2.694v.477h-.037a.276.276,0,0,0-.276.277q0,.01,0,.02A11.967,11.967,0,0,1,608,550.32a.762.762,0,0,0-.138.462l.295,9.112a.789.789,0,0,0,.782.761h6.093a.789.789,0,0,0,.782-.775l.114-8.847A1.6,1.6,0,0,0,615.655,550.122Z" transform="translate(-454.189 -384.427)" fill="#693"/>
      <path id="Path_1155" data-name="Path 1155" d="M618.868,537.627a.73.73,0,0,1-1.459,0" transform="translate(-460.488 -381.814)" opacity="0.2"/>
      <rect id="Rectangle_1508" data-name="Rectangle 1508" width="5.144" height="3.429" transform="translate(155.136 167.45)" fill="#fff"/>
      <path id="Path_1156" data-name="Path 1156" d="M850.109,641.218h-4.774a.633.633,0,0,0-.633.633v2.1a.633.633,0,0,0,.633.633h.791v3.14h3.192v-3.14h.791a.633.633,0,0,0,.633-.633v-2.1a.633.633,0,0,0-.633-.633Z" transform="translate(-610.481 -450.175)" fill="#e6e6e6"/>
      <path id="Path_1157" data-name="Path 1157" d="M846.363,666.615a24.548,24.548,0,0,1-4.27-14.554.518.518,0,0,0-.4-.517v-.906h-5.042v.893h-.069a.517.517,0,0,0-.517.518c0,.013,0,.025,0,.038a22.4,22.4,0,0,1-4.024,14.9,1.426,1.426,0,0,0-.258.864l.551,17.056a1.476,1.476,0,0,0,1.464,1.425H845.2a1.477,1.477,0,0,0,1.465-1.45l.213-16.56A2.989,2.989,0,0,0,846.363,666.615Z" transform="translate(-601.952 -456.392)" fill="#693"/>
      <path id="Path_1158" data-name="Path 1158" d="M852.376,643.226a1.366,1.366,0,0,1-2.731,0" transform="translate(-613.743 -451.5)" opacity="0.2"/>
      <path id="Path_1159" data-name="Path 1159" d="M848.114,714.273h-9.928a1.019,1.019,0,0,0-1.007,1.174l1.5,9.751h8.615l1.822-9.719a1.019,1.019,0,0,0-1-1.207Z" transform="translate(-605.509 -498.385)" fill="#fff"/>
      <path id="Path_1160" data-name="Path 1160" d="M765.319,683.8H736.858c1.99-10.758,1.532-23.749,0-37.72h28.461C763.828,660.056,763.383,673.046,765.319,683.8Z" transform="translate(-539.314 -453.387)" fill="#693"/>
      <circle id="Ellipse_72" data-name="Ellipse 72" cx="6.858" cy="6.858" r="6.858" transform="translate(205.088 203.671)" fill="#fff"/>
      <path id="Path_1161" data-name="Path 1161" d="M322.243,300.289l6.389-.581,4.066-9.874-7.261-4.066Z" transform="translate(-212.651 -188.581)" fill="#ffb8b8"/>
      <path id="Path_1162" data-name="Path 1162" d="M622.5,476.922h0a3.6,3.6,0,0,0-3.13-4.937l-9.92-.592-1.461,4.857,10.213,2.8A3.6,3.6,0,0,0,622.5,476.922Z" transform="translate(-454.275 -338.106)" fill="#ffb8b8"/>
      <path id="Path_1163" data-name="Path 1163" d="M524.522,428.18l-.109-9.114-22.035-3.516L485.4,396.081a5.557,5.557,0,0,0-7.242-.99h0a5.556,5.556,0,0,0-.968,8.476l14,17.235Z" transform="translate(-366.945 -287.149)" fill="#3c704f"/>
      <path id="Path_1164" data-name="Path 1164" d="M463.726,605.166h5.809l14.407-65.139,14.926,20.123,8.713,43.564H513.1l-1.162-46.758L492.478,507H473.31c-5.238,9.48-9.347,19.252-4.647,29.333Z" transform="translate(-359.071 -361.605)" fill="#2f2e41"/>
      <path id="Path_1165" data-name="Path 1165" d="M582.07,794.248a1.516,1.516,0,0,0,1.182,1.945l14.213,2.522a2.339,2.339,0,0,0,2.653-1.6h0a2.324,2.324,0,0,0-1.137-2.763,21.732,21.732,0,0,1-7.839-6.815c-1.562,1.455-3.308,1.318-5.162.246l-1.967.246Z" transform="translate(-437.122 -546.73)" fill="#2f2e41"/>
      <path id="Path_1166" data-name="Path 1166" d="M455.684,794.248a1.516,1.516,0,0,0,1.182,1.945l14.213,2.522a2.339,2.339,0,0,0,2.653-1.6h0a2.324,2.324,0,0,0-1.137-2.763,21.732,21.732,0,0,1-7.839-6.815c-1.562,1.455-3.308,1.318-5.162.246l-1.967.246Z" transform="translate(-353.719 -546.73)" fill="#2f2e41"/>
      <circle id="Ellipse_73" data-name="Ellipse 73" cx="8.132" cy="8.132" r="8.132" transform="translate(112.06 88.619)" fill="#ffb8b8"/>
      <path id="Path_1167" data-name="Path 1167" d="M475.456,431.412l21.2-.581-6.226-19.6c3.869-6.2-.025-12.4-5.536-18.6l-4.356-2.9-6.97-.581h0a17.111,17.111,0,0,0-4.608,11.92A76.789,76.789,0,0,0,475.456,431.412Z" transform="translate(-362.524 -283.836)" fill="#578963"/>
      <path id="Path_1168" data-name="Path 1168" d="M605.918,532.368h0a3.6,3.6,0,0,0-.935-5.77l-8.887-4.447-3.254,3.891,8.286,6.6A3.6,3.6,0,0,0,605.918,532.368Z" transform="translate(-444.276 -371.601)" fill="#ffb8b8"/>
      <path id="Path_1169" data-name="Path 1169" d="M533.607,451.267l3.485-8.422-18.876-11.9-7.948-24.578A5.557,5.557,0,0,0,504,402.606h0a5.556,5.556,0,0,0-4.224,7.412l6.1,21.355Z" transform="translate(-382.629 -292.655)" fill="#3c704f"/>
      <path id="Path_1170" data-name="Path 1170" d="M470.13,335.769c0,3.164,2.055,8.064,4.647,10.165,1.744,1.413,4.049,1.354,4.937-.581a23.017,23.017,0,0,1,9.584-9.584c7.372-3.912-2.614-10.6-9.584-9.584C474.477,326.952,470.13,330.476,470.13,335.769Z" transform="translate(-363.297 -242.213)" fill="#2f2e41"/>
      <circle id="Ellipse_74" data-name="Ellipse 74" cx="5.809" cy="5.809" r="5.809" transform="translate(105.962 77.583)" fill="#2f2e41"/>
      <path id="Path_1171" data-name="Path 1171" d="M493.863,307.432a5.8,5.8,0,0,0-5.373-5.786c.144-.011.289-.022.436-.022a5.809,5.809,0,0,1,0,11.617c-.147,0-.291-.011-.436-.022A5.8,5.8,0,0,0,493.863,307.432Z" transform="translate(-375.414 -226.073)" fill="#2f2e41"/>
      <ellipse id="Ellipse_75" data-name="Ellipse 75" cx="1.307" cy="1.743" rx="1.307" ry="1.743" transform="translate(119.031 96.171)" fill="#ffb8b8"/>
      <path id="Path_1172" data-name="Path 1172" d="M593.438,501.329H503.017L483.87,410.813H467.529v-4.061h19.633l19.147,90.515h87.128Z" transform="translate(-308.527 -268.42)" fill="#3f3d56"/>
      <circle id="Ellipse_76" data-name="Ellipse 76" cx="8.703" cy="8.703" r="8.703" transform="translate(199.038 232.039)" fill="#3f3d56"/>
      <circle id="Ellipse_77" data-name="Ellipse 77" cx="8.703" cy="8.703" r="8.703" transform="translate(264.023 232.039)" fill="#3f3d56"/>
      <path id="Path_1173" data-name="Path 1173" d="M788.08,609.853H700.106l-15.522-76.708H802.647a4.171,4.171,0,0,1,4.12,4.818L792.2,606.33a4.15,4.15,0,0,1-4.12,3.523Zm-87.019-1.16H788.08a3,3,0,0,0,2.973-2.543l14.567-68.367a3.01,3.01,0,0,0-2.974-3.477H685.993Z" transform="translate(-504.818 -378.856)" fill="#3f3d56"/>
      <path id="Path_1174" data-name="Path 1174" d="M604.788,531.074l-10.165-75.788,1.145-.189,10.165,75.788Z" transform="translate(-392.397 -300.323)" fill="#3f3d56"/>
      <path id="Path_1175" data-name="Path 1175" d="M788.489,530.5l-1.146-.186,9.868-75.208,1.146.186Z" transform="translate(-519.575 -300.326)" fill="#3f3d56"/>
      <rect id="Rectangle_1509" data-name="Rectangle 1509" width="1.16" height="75.788" transform="translate(240.823 154.869)" fill="#3f3d56"/>
      <rect id="Rectangle_1510" data-name="Rectangle 1510" width="1.16" height="112.33" transform="translate(185.691 176.336) rotate(-89.861)" fill="#3f3d56"/>
      <rect id="Rectangle_1511" data-name="Rectangle 1511" width="98.687" height="1.16" transform="translate(191.415 211.699) rotate(-0.392)" fill="#3f3d56"/>
      <ellipse id="Ellipse_78" data-name="Ellipse 78" cx="6.382" cy="3.481" rx="6.382" ry="3.481" transform="translate(154.361 136.302)" fill="#3f3d56"/>
    </g>
  </g>
</svg>
