<svg xmlns="http://www.w3.org/2000/svg" width="302" height="231.27" viewBox="0 0 302 231.27">
  <g id="Group_431" data-name="Group 431" transform="translate(0 -0.006)">
    <path id="Path_1041" data-name="Path 1041" d="M427.764,108.04a73.551,73.551,0,0,0-11.977-19.087l-166.2-1.638L386.424,68.1a77.733,77.733,0,0,0-27.765-5.507,77.816,77.816,0,0,0-92.955-3.145,77.481,77.481,0,0,0-35.576-8.577c-36.928,0-67.7,25.577-74.6,59.492Z" transform="translate(-131.608 -45.55)" fill="#693" opacity="0.1"/>
    <path id="Path_1042" data-name="Path 1042" d="M373.86,296.537a71.852,71.852,0,0,0-5.178-26.847L80.64,299.925A72.335,72.335,0,0,0,73.9,316.968l89.2,13.295-91.245,9.7c2.745,38.395,35.659,68.712,75.866,68.712a76.978,76.978,0,0,0,52.258-20.211,76.977,76.977,0,0,0,52.7,20.617c30.355,0,56.553-17.283,68.753-42.272,24.477-7.768,43.49-27.273,50-51.675l-112.8-17.495H373.849C373.854,297.269,373.86,296.9,373.86,296.537Z" transform="translate(-71.86 -205.602)" fill="#693" opacity="0.1"/>
    <ellipse id="Ellipse_52" data-name="Ellipse 52" cx="7.382" cy="1.015" rx="7.382" ry="1.015" transform="translate(0.655 210.219)" fill="#6c63ff" opacity="0.1"/>
    <ellipse id="Ellipse_53" data-name="Ellipse 53" cx="7.382" cy="1.015" rx="7.382" ry="1.015" transform="translate(28.934 213.087)" fill="#6c63ff" opacity="0.1"/>
    <ellipse id="Ellipse_54" data-name="Ellipse 54" cx="7.382" cy="1.015" rx="7.382" ry="1.015" transform="translate(62.245 209.204)" fill="#6c63ff" opacity="0.1"/>
    <ellipse id="Ellipse_55" data-name="Ellipse 55" cx="5.249" cy="0.72" rx="5.249" ry="0.72" transform="translate(19.748 221.547)" fill="#6c63ff" opacity="0.1"/>
    <ellipse id="Ellipse_56" data-name="Ellipse 56" cx="5.249" cy="0.72" rx="5.249" ry="0.72" transform="translate(49.102 220.826)" fill="#6c63ff" opacity="0.1"/>
    <path id="Path_1043" data-name="Path 1043" d="M189.055,653.566s-10.356-33.943,1.618-47.538c8.96-10.173,19.127-8.955,23.682-7.7a8.417,8.417,0,0,1,5.432,4.514c1.593,3.431,1.3,9.009-9.935,15.516-18.819,10.9-19.988,25.84-19.988,25.84Z" transform="translate(-152.579 -439.693)" fill="#693"/>
    <path id="Path_1044" data-name="Path 1044" d="M220.621,617.23s-30.524,9.544-23.679,50.42" transform="translate(-160.465 -453.777)" fill="none" stroke="#565987" stroke-miterlimit="10" stroke-width="1"/>
    <path id="Path_1045" data-name="Path 1045" d="M219.91,629.2s4.2,2.831,2.859,7.088" transform="translate(-177.581 -462.325)" fill="none" stroke="#565987" stroke-miterlimit="10" stroke-width="1"/>
    <path id="Path_1046" data-name="Path 1046" d="M257.325,633.99s-2.573-2.613-5.7-1.172" transform="translate(-200.232 -464.598)" fill="none" stroke="#565987" stroke-miterlimit="10" stroke-width="1"/>
    <path id="Path_1047" data-name="Path 1047" d="M215.168,681.837s-4.512-2.287-5.678.572" transform="translate(-170.14 -499.294)" fill="none" stroke="#565987" stroke-miterlimit="10" stroke-width="1"/>
    <path id="Path_1048" data-name="Path 1048" d="M190.3,700.638s3.388-.269,3.451,1.352" transform="translate(-156.437 -513.327)" fill="none" stroke="#565987" stroke-miterlimit="10" stroke-width="1"/>
    <path id="Path_1049" data-name="Path 1049" d="M198,734.239s12.128-24.671,15.459-24.131c1.581.257,2.31,1.813,2.642,3.377a9.95,9.95,0,0,1-.66,6.021C213.725,723.437,209.088,730.942,198,734.239Z" transform="translate(-161.935 -520.094)" fill="#693"/>
    <path id="Path_1050" data-name="Path 1050" d="M213.787,726.51s-12.729,18.458-15.187,19.267" transform="translate(-162.364 -531.813)" fill="none" stroke="#565987" stroke-miterlimit="10" stroke-width="1"/>
    <line id="Line_8" data-name="Line 8" x1="2.971" transform="translate(49.625 197.576)" fill="none" stroke="#565987" stroke-miterlimit="10" stroke-width="1"/>
    <line id="Line_9" data-name="Line 9" x1="4.655" y2="0.2" transform="translate(44.382 204.329)" fill="none" stroke="#565987" stroke-miterlimit="10" stroke-width="1"/>
    <line id="Line_10" data-name="Line 10" x2="0.506" y2="2.425" transform="translate(46.203 198.928)" fill="none" stroke="#565987" stroke-miterlimit="10" stroke-width="1"/>
    <line id="Line_11" data-name="Line 11" x2="0.091" y2="2.204" transform="translate(41.251 206.311)" fill="none" stroke="#565987" stroke-miterlimit="10" stroke-width="1"/>
    <path id="Path_1051" data-name="Path 1051" d="M153.531,734.239s-12.128-24.671-15.459-24.131c-1.581.257-2.31,1.813-2.642,3.377a9.93,9.93,0,0,0,.663,6C137.812,723.437,142.435,730.942,153.531,734.239Z" transform="translate(-117.115 -520.094)" fill="#693"/>
    <path id="Path_1052" data-name="Path 1052" d="M145.48,726.51s12.729,18.458,15.187,19.267" transform="translate(-124.431 -531.813)" fill="none" stroke="#565987" stroke-miterlimit="10" stroke-width="1"/>
    <line id="Line_12" data-name="Line 12" x2="2.971" transform="translate(19.879 197.576)" fill="none" stroke="#565987" stroke-miterlimit="10" stroke-width="1"/>
    <line id="Line_13" data-name="Line 13" x2="4.657" y2="0.2" transform="translate(23.436 204.329)" fill="none" stroke="#565987" stroke-miterlimit="10" stroke-width="1"/>
    <line id="Line_14" data-name="Line 14" x1="0.506" y2="2.425" transform="translate(25.766 198.928)" fill="none" stroke="#565987" stroke-miterlimit="10" stroke-width="1"/>
    <line id="Line_15" data-name="Line 15" x1="0.091" y2="2.204" transform="translate(31.133 206.311)" fill="none" stroke="#565987" stroke-miterlimit="10" stroke-width="1"/>
    <path id="Path_1053" data-name="Path 1053" d="M255.3,806.35a2.1,2.1,0,0,0,.692-1.041.926.926,0,0,0-.483-1.061c-.443-.172-.918.137-1.275.446a1.713,1.713,0,0,1-1.241.6,1.89,1.89,0,0,0,.572-1.767.738.738,0,0,0-.16-.36c-.246-.263-.692-.149-.986.057a3.671,3.671,0,0,0-1.2,3.076,5.855,5.855,0,0,1-.017-1.267,1.293,1.293,0,0,0-.477-1.121,1.4,1.4,0,0,0-.723-.172,1.559,1.559,0,0,0-1.178.335,1.171,1.171,0,0,0,.046,1.447,4.61,4.61,0,0,0,1.218.975,2.719,2.719,0,0,1,.858.829.861.861,0,0,1,.063.149h2.639a7.319,7.319,0,0,0,1.658-1.126Z" transform="translate(-198.057 -586.445)" fill="#693"/>
    <path id="Path_1054" data-name="Path 1054" d="M93.661,771.6a2.1,2.1,0,0,0,.692-1.041.932.932,0,0,0-.483-1.064c-.443-.169-.915.14-1.275.449a1.709,1.709,0,0,1-1.241.6,1.881,1.881,0,0,0,.572-1.767.746.746,0,0,0-.163-.357c-.246-.263-.692-.151-.986.057a3.671,3.671,0,0,0-1.2,3.076,5.881,5.881,0,0,1-.017-1.269,1.286,1.286,0,0,0-.475-1.118,1.407,1.407,0,0,0-.726-.172,1.5,1.5,0,0,0-1.178.335,1.149,1.149,0,0,0,.046,1.43,4.53,4.53,0,0,0,1.221.978,2.679,2.679,0,0,1,.858.829,1.013,1.013,0,0,1,.066.149h2.639a7.366,7.366,0,0,0,1.655-1.112Z" transform="translate(-82.633 -561.628)" fill="#693"/>
    <path id="Path_1055" data-name="Path 1055" d="M147.536,806.35a2.1,2.1,0,0,0,.692-1.041.926.926,0,0,0-.483-1.061c-.443-.172-.918.137-1.275.446a1.713,1.713,0,0,1-1.241.6,1.89,1.89,0,0,0,.572-1.767.738.738,0,0,0-.16-.36c-.246-.263-.692-.149-.986.057a3.671,3.671,0,0,0-1.2,3.076,5.854,5.854,0,0,1-.017-1.267,1.291,1.291,0,0,0-.475-1.121,1.413,1.413,0,0,0-.726-.172,1.563,1.563,0,0,0-1.178.335,1.171,1.171,0,0,0,.046,1.447,4.609,4.609,0,0,0,1.218.975,2.719,2.719,0,0,1,.858.829.86.86,0,0,1,.063.149h2.639A7.317,7.317,0,0,0,147.536,806.35Z" transform="translate(-121.106 -586.445)" fill="#693"/>
    <path id="Path_1056" data-name="Path 1056" d="M310.273,744.43s.989,1.3-.457,3.248-2.636,3.6-2.156,4.82c0,0,2.181-3.628,3.957-3.68S312.226,746.611,310.273,744.43Z" transform="translate(-240.165 -544.61)" fill="#693"/>
    <path id="Path_1057" data-name="Path 1057" d="M310.415,744.43a1.642,1.642,0,0,1,.2.406c1.733,2.036,2.653,3.934.989,3.983-1.552.046-3.411,2.819-3.857,3.52.014.054.031.106.051.16,0,0,2.181-3.628,3.957-3.68S312.367,746.611,310.415,744.43Z" transform="translate(-240.307 -544.61)" opacity="0.1"/>
    <path id="Path_1058" data-name="Path 1058" d="M322.929,749.474c0,.455-.051.823-.114.823s-.114-.369-.114-.823.066-.24.129-.24S322.929,749.019,322.929,749.474Z" transform="translate(-250.983 -548.004)" fill="#ffd037"/>
    <path id="Path_1059" data-name="Path 1059" d="M323.763,751.31c-.4.217-.749.349-.778.286s.269-.286.669-.495.24-.06.272,0S324.163,751.093,323.763,751.31Z" transform="translate(-251.185 -549.297)" fill="#ffd037"/>
    <path id="Path_1060" data-name="Path 1060" d="M293.253,744.43s-.989,1.3.457,3.248,2.639,3.6,2.156,4.82c0,0-2.181-3.628-3.957-3.68S291.312,746.611,293.253,744.43Z" transform="translate(-228.372 -544.61)" fill="#693"/>
    <path id="Path_1061" data-name="Path 1061" d="M293.253,744.43a1.588,1.588,0,0,0-.2.406c-1.733,2.036-2.656,3.934-.992,3.983,1.552.046,3.414,2.819,3.86,3.52-.017.054-.034.106-.054.16,0,0-2.181-3.628-3.957-3.68S291.312,746.611,293.253,744.43Z" transform="translate(-228.372 -544.61)" opacity="0.1"/>
    <path id="Path_1062" data-name="Path 1062" d="M292.36,749.474c0,.455.051.823.114.823s.114-.369.114-.823-.063-.24-.126-.24S292.36,749.019,292.36,749.474Z" transform="translate(-229.317 -548.004)" fill="#ffd037"/>
    <path id="Path_1063" data-name="Path 1063" d="M289.52,751.31c.4.217.749.349.781.286s-.272-.286-.669-.495-.243-.06-.286,0S289.122,751.093,289.52,751.31Z" transform="translate(-227.109 -549.297)" fill="#ffd037"/>
    <path id="Path_1064" data-name="Path 1064" d="M293.46,768.317s2.768-.083,3.6-.678,4.254-1.3,4.463-.352,4.154,4.735,1.032,4.76-7.254-.486-8.086-.992S293.46,768.317,293.46,768.317Z" transform="translate(-230.103 -560.6)" fill="#a8a8a8"/>
    <path id="Path_1065" data-name="Path 1065" d="M302.612,775.442c-3.122.026-7.256-.486-8.088-.992-.635-.386-.886-1.77-.969-2.41h-.094s.177,2.233,1.009,2.739,4.963,1.018,8.086.992c.9,0,1.212-.329,1.2-.8C303.621,775.259,303.281,775.437,302.612,775.442Z" transform="translate(-230.103 -564.326)" opacity="0.2"/>
    <ellipse id="Ellipse_57" data-name="Ellipse 57" cx="94.184" cy="4.271" rx="94.184" ry="4.271" transform="translate(80.904 222.733)" fill="#693" opacity="0.1"/>
    <path id="Path_1066" data-name="Path 1066" d="M624.949,389.984s6,11.359,6.47,12.98a2.19,2.19,0,0,0,2.024,1.618s5.981,1.43,7.411,1.621,13.821,1.238,13.821,1.238,3.145.1,3.525-1.046c.349-1.046,6.424-6.544,9.941-1.747a3.5,3.5,0,0,1,.509,3.122c-.646,2.059-1.973,5.327-3.4,3.294-2-2.859-4.329-2.056-4.329-.532s-3.2.958-4.249,1.172c-.572.117-2.539.64-4.24,1.1a30.88,30.88,0,0,1-6.038,1c-3.377.22-8.354.4-10.118-.263a27.465,27.465,0,0,0-7.434-1.038,2.444,2.444,0,0,1-1.45-.52,22.612,22.612,0,0,1-5.5-6.259c-2.479-4.289-7.577-13.169-7.234-15.742S624.949,389.984,624.949,389.984Z" transform="translate(-459.456 -290.686)" fill="#efb7b9"/>
    <path id="Path_1067" data-name="Path 1067" d="M624.949,389.984s6,11.359,6.47,12.98a2.19,2.19,0,0,0,2.024,1.618s5.981,1.43,7.411,1.621,13.821,1.238,13.821,1.238,3.145.1,3.525-1.046c.349-1.046,6.424-6.544,9.941-1.747a3.5,3.5,0,0,1,.509,3.122c-.646,2.059-1.973,5.327-3.4,3.294-2-2.859-4.329-2.056-4.329-.532s-3.2.958-4.249,1.172c-.572.117-2.539.64-4.24,1.1a30.88,30.88,0,0,1-6.038,1c-3.377.22-8.354.4-10.118-.263a27.465,27.465,0,0,0-7.434-1.038,2.444,2.444,0,0,1-1.45-.52,22.612,22.612,0,0,1-5.5-6.259c-2.479-4.289-7.577-13.169-7.234-15.742S624.949,389.984,624.949,389.984Z" transform="translate(-459.456 -290.686)" opacity="0.05"/>
    <path id="Path_1068" data-name="Path 1068" d="M839.343,564.464c-2.719,2.956-4.72,4.12-4.626,1,.286-9.435-16.3-52.093-16.3-52.093l4.9-.372C834.025,531.438,838,550.4,839.343,564.464Z" transform="translate(-604.972 -379.348)" fill="none"/>
    <path id="Path_1069" data-name="Path 1069" d="M855.585,706.037a23.587,23.587,0,0,1-47.086,2c-.034-.383-.06-.766-.071-1.144v-.02q-.017-.426-.017-.858a23.587,23.587,0,1,1,47.175,0Z" transform="translate(-597.824 -500.336)" fill="#65617d"/>
    <circle id="Ellipse_58" data-name="Ellipse 58" cx="12.866" cy="12.866" r="12.866" transform="translate(221.308 192.821)" fill="#dce0ed"/>
    <circle id="Ellipse_59" data-name="Ellipse 59" cx="7.72" cy="7.72" r="7.72" transform="translate(226.454 197.968)" fill="#65617d"/>
    <path id="Path_1070" data-name="Path 1070" d="M532.389,565.014l-56.8,1.144v-8.371c.509-6.739,7.434-9.1,13.724-9.844a39.392,39.392,0,0,1,14.676,1.1c12.051,3.191,19.728,3.808,23.51,3.868a3.605,3.605,0,0,1,3.488,2.933c.18.958.357,2,.523,3.031.126.806.246,1.6.355,2.342C532.18,563.35,532.389,565.014,532.389,565.014Z" transform="translate(-360.16 -404.12)" fill="#65617d"/>
    <path id="Path_1071" data-name="Path 1071" d="M526.545,586.544H408.553a4.646,4.646,0,0,1-4.3-2.782c-.889-2.124.355-3.479,1.681-4.274a13.366,13.366,0,0,0,5.81-7.108c1.258-3.717,2.487-9.532,2.971-18.618.5-9.4,3.9-14.044,7.577-16.3h0a15,15,0,0,1,9.955-1.815l47.841.383a9.2,9.2,0,0,1,2.336,1.524c4.263,3.968-1.953,9.149-1.953,9.149-13.343,14.1-3.242,28.4-3.242,28.4h24.48a22.527,22.527,0,0,0,12.823-3.925c3.308-2.287,4.574-4.5,5.083-5.835.377-1.024.76-2.044,1.218-3.033,6.422-13.927-1.324-36.582-4.666-45.054-.829-2.107-1.387-3.337-1.387-3.337l7.677-.572,4.86-.369h.049c10.7,18.453,14.676,37.414,16.011,51.464.126,1.324.229,2.607.312,3.84a17.154,17.154,0,0,1-17.14,18.261Z" transform="translate(-309.003 -379.333)" fill="#547038"/>
    <path id="Path_1072" data-name="Path 1072" d="M531.868,589.152H475.59V586.81h55.924C531.64,587.6,531.76,588.4,531.868,589.152Z" transform="translate(-360.16 -432.055)" opacity="0.1"/>
    <path id="Path_1073" data-name="Path 1073" d="M528.232,593.737H468.552a1.144,1.144,0,0,1-.452-.091,15,15,0,0,1,9.955-1.816l47.841.383A9.2,9.2,0,0,1,528.232,593.737Z" transform="translate(-354.811 -435.497)" opacity="0.1"/>
    <rect id="Rectangle_1499" data-name="Rectangle 1499" width="83.4" height="2.342" rx="1.171" transform="translate(91.688 155.313)" fill="#dce0ed"/>
    <path id="Path_1074" data-name="Path 1074" d="M839.343,564.464c-2.719,2.956-4.72,4.12-4.626,1,.286-9.435-16.3-52.093-16.3-52.093l4.9-.372C834.025,531.438,838,550.4,839.343,564.464Z" transform="translate(-604.972 -379.348)" opacity="0.1"/>
    <path id="Path_1075" data-name="Path 1075" d="M855.492,703.509c-2.816.675-6.29,1.361-10.579,2q-2.393.352-5.146.675c-4.383.52-9.452.975-15.308,1.324q-2.487.149-5.166.272-5.018.229-10.742.349l-.072-1.144v-.02c5.332-2.153,13.724-7.9,15.073-22.858a23.6,23.6,0,0,1,31.942,19.425Z" transform="translate(-597.874 -500.406)" opacity="0.1"/>
    <path id="Path_1076" data-name="Path 1076" d="M792.92,659.9S820,656.964,810.669,615.71c0,0,13.378,12.266,21.7,19.082s23.159,16.214,23.159,16.214S846.671,659.283,792.92,659.9Z" transform="translate(-586.762 -452.692)" fill="#693"/>
    <path id="Path_1077" data-name="Path 1077" d="M792.92,659.9S820,656.964,810.669,615.71c0,0,13.378,12.266,21.7,19.082s23.159,16.214,23.159,16.214S846.671,659.283,792.92,659.9Z" transform="translate(-579.762 -449.692)" fill="#693" opacity="0.1"/>
    <circle id="Ellipse_60" data-name="Ellipse 60" cx="23.587" cy="23.587" r="23.587" transform="translate(110.235 182.1)" fill="#65617d"/>
    <circle id="Ellipse_61" data-name="Ellipse 61" cx="12.866" cy="12.866" r="12.866" transform="translate(120.957 192.821)" fill="#dce0ed"/>
    <circle id="Ellipse_62" data-name="Ellipse 62" cx="7.72" cy="7.72" r="7.72" transform="translate(126.103 197.968)" fill="#65617d"/>
    <path id="Path_1078" data-name="Path 1078" d="M497.457,671.289c0-15.23-12.1-27.579-27.018-27.579s-27.018,12.348-27.018,27.579q0,.966.066,1.913h53.905Q497.457,672.255,497.457,671.289Z" transform="translate(-337.188 -472.686)" opacity="0.1"/>
    <path id="Path_1079" data-name="Path 1079" d="M498.955,672.178c0-14.667-11.648-26.558-26.018-26.558s-26.018,11.891-26.018,26.558c0,.62.023,1.232.063,1.841h51.91C498.933,673.41,498.955,672.8,498.955,672.178Z" transform="translate(-339.687 -474.05)" fill="#693"/>
    <path id="Path_1080" data-name="Path 1080" d="M498.955,672.178c0,.426,0,.858-.031,1.269,0,.192-.02.38-.031.572h-51.91c0-.192-.023-.38-.031-.572-.02-.42-.031-.858-.031-1.269,0-14.667,11.648-26.558,26.018-26.558S498.955,657.511,498.955,672.178Z" transform="translate(-335.687 -472.05)" fill="#693" opacity="0.1"/>
    <path id="Path_1081" data-name="Path 1081" d="M499,743c0,.192-.02.38-.031.572h-51.91c0-.192-.023-.38-.031-.572Z" transform="translate(-339.766 -543.589)" opacity="0.1"/>
    <rect id="Rectangle_1500" data-name="Rectangle 1500" width="69.899" height="6.098" rx="3.049" transform="translate(95.851 200.541)" opacity="0.1"/>
    <rect id="Rectangle_1501" data-name="Rectangle 1501" width="69.899" height="6.098" rx="3.049" transform="translate(95.851 199.969)" fill="#dce0ed"/>
    <ellipse id="Ellipse_63" data-name="Ellipse 63" cx="3.425" cy="8.623" rx="3.425" ry="8.623" transform="translate(219.492 145.892) rotate(-24.33)" opacity="0.1"/>
    <ellipse id="Ellipse_64" data-name="Ellipse 64" cx="3.425" cy="8.623" rx="3.425" ry="8.623" transform="translate(219.777 145.605) rotate(-24.33)" fill="#dce0ed"/>
    <path id="Path_1082" data-name="Path 1082" d="M804.121,513v4.48H795.4a15.019,15.019,0,0,1-2.424-.194c-.829-2.107-1.387-3.337-1.387-3.337l7.677-.572Z" transform="translate(-585.813 -379.348)" opacity="0.1"/>
    <path id="Path_1083" data-name="Path 1083" d="M779.007,459.734h-8.72c-7.659,0-13.867-5.718-13.867-12.8v-1.187c0-7.068,6.207-12.8,13.867-12.8l8.72.792Z" transform="translate(-560.698 -322.185)" fill="#693"/>
    <path id="Path_1084" data-name="Path 1084" d="M761.784,458.736S767,461.524,764,466.241c0,0-3.682,6.038-9.472,5.467l-2.107-12.972S759.353,458.093,761.784,458.736Z" transform="translate(-557.842 -340.394)" fill="#5b7e39"/>
    <path id="Path_1085" data-name="Path 1085" d="M759.794,458.475a5.547,5.547,0,0,1,4.243,2.236,4.569,4.569,0,0,1-.017,5.521s-3.682,6.038-9.472,5.467l-2.107-12.972A61.518,61.518,0,0,1,759.794,458.475Z" transform="translate(-555.856 -337.385)" fill="#233116" opacity="0.1"/>
    <path id="Path_1086" data-name="Path 1086" d="M762.56,390.17h1.681a5.324,5.324,0,0,1,5.324,5.324v15.348a5.324,5.324,0,0,1-5.324,5.324H762.56Z" transform="translate(-544.537 -278.613)" opacity="0.1"/>
    <path id="Path_1087" data-name="Path 1087" d="M763.56,390.17h1.681a5.324,5.324,0,0,1,5.324,5.324v15.348a5.324,5.324,0,0,1-5.324,5.324H763.56Z" transform="translate(-545.251 -278.613)" fill="#dce0ed"/>
    <path id="Path_1088" data-name="Path 1088" d="M618.88,519.9s1.347.492,3.145,1.178a71.214,71.214,0,0,1,8.291,3.588c1.4.881,6.625,2.327,10.536,3.345a34.307,34.307,0,0,0,8.88,1.1c3.042-.029,6.727-.057,7.745-.057a3.206,3.206,0,0,1,.532.04c1.069.177,1.026.895,1,1.066v.037c-6.29,3.811-13.915,20.871-14.39,23.73-.357,2.144-3.5,8.088-5.049,10.93-.52.952-.858,1.555-.858,1.555l1.907,2.19,5.527,2.479,5.241,2.287s5.529.286,5.624,0,.094-3.239.094-3.239a15.614,15.614,0,0,1-1.91-1.452,31.6,31.6,0,0,1-3.522-3.6c-3.048-3.622,3.051-10.579,3.051-10.579l11.722-15.248s.952-1.715,5.527-8.577,0-10.579,0-10.579l-8.051-3.342c-13.964-5.226-30.807-9.415-30.807-9.415l-.24-.031-3.571-.446Z" transform="translate(-462.482 -374.963)" fill="#efb7b9"/>
    <path id="Path_1089" data-name="Path 1089" d="M700.04,716.854s1,1.181.252,1.287a12.453,12.453,0,0,1-2.716-.32L685.1,711.245s-1.358-.966-1.678.929-.537,1.715-.537,1.715-1.644,3.537,0,4.269,11.519,3.628,11.519,3.628,14.333,3.254,15.691-.5-2.43-3.108-2.43-3.108-4.718-1.144-6.327-3.431C701.326,714.747,699,715.391,700.04,716.854Z" transform="translate(-507.666 -520.737)" fill="#444053"/>
    <path id="Path_1090" data-name="Path 1090" d="M671.962,520.095l-8.051-3.342c-13.964-5.226-30.807-9.415-30.807-9.415l-.24-.031-3.571-.446L618.88,519.9s1.347.492,3.145,1.178a71.205,71.205,0,0,1,8.291,3.588c1.4.881,6.625,2.327,10.536,3.345a34.31,34.31,0,0,0,8.88,1.1c3.042-.029,6.727-.057,7.745-.057a3.206,3.206,0,0,1,.532.04c1.069.177,1.026.895,1,1.066v.037c-6.29,3.811-13.915,20.871-14.39,23.73-.357,2.144-3.5,8.088-5.049,10.93l-.209.383c-.415-.069-.932.08-1.115,1.161-.323,1.893-.538,1.715-.538,1.715s-1.644,3.537,0,4.269,11.511,3.628,11.511,3.628,14.333,3.254,15.691-.5-2.43-3.108-2.43-3.108-4.718-1.144-6.327-3.431a3.155,3.155,0,0,0-.417.154c-.169-.137-.349-.286-.54-.452a31.6,31.6,0,0,1-3.522-3.6c-3.048-3.622,3.051-10.579,3.051-10.579l11.722-15.248s.952-1.715,5.527-8.577S671.962,520.095,671.962,520.095Z" transform="translate(-462.482 -374.963)" opacity="0.05"/>
    <path id="Path_1091" data-name="Path 1091" d="M585.3,291.2l.435.549.243.306,1.515,1.907s3.617,1.161,6.787,1.913c3.3.781,6.118,1.121,3.88-.746-1.39-1.158-1.481-3.1-.975-5.175a21.413,21.413,0,0,1,1.818-4.6q.169-.326.335-.635a38.14,38.14,0,0,1,2.356-3.805,67.646,67.646,0,0,0-6.316-3.88c-2.619-1.355-4.769-1.947-3.405.735a6.275,6.275,0,0,1-.229,5.487c-.063.146-.132.286-.2.437a19.666,19.666,0,0,1-2.7,3.971A31.337,31.337,0,0,1,585.3,291.2Z" transform="translate(-438.503 -210.028)" fill="#efb7b9"/>
    <path id="Path_1092" data-name="Path 1092" d="M569.875,436.24l1.938,1.77,1.873,7.2h-3.125l-3.451-4.489Z" transform="translate(-404.968 -311.511)" fill="#444053"/>
    <path id="Path_1093" data-name="Path 1093" d="M567.11,440.726l2.087,2.713,1.364,1.775h3.125l-.32-1.232L572,438.733l-.189-.723-1.938-1.77-2.648,4.294Z" transform="translate(-404.968 -311.511)" opacity="0.1"/>
    <path id="Path_1094" data-name="Path 1094" d="M567.11,440.726l2.087,2.713,1.364,1.775h3.125l-.32-1.232L572,438.733l-.189-.723-1.938-1.77-2.648,4.294Z" transform="translate(-404.968 -311.511)" opacity="0.1"/>
    <path id="Path_1095" data-name="Path 1095" d="M602.64,525.229s1.347.492,3.145,1.178A71.226,71.226,0,0,1,614.076,530c1.4.881,6.625,2.327,10.536,3.345a34.309,34.309,0,0,0,8.88,1.1c3.042-.029,6.727-.057,7.745-.057a3.206,3.206,0,0,1,.532.04c1.069.177,1.026.895,1,1.066v.037c-6.29,3.811-13.915,20.871-14.39,23.73-.357,2.144-3.5,8.088-5.049,10.93-.52.952-.858,1.555-.858,1.555l1.907,2.19,5.524,2.476,5.241,2.287s5.529.286,5.624,0,.094-3.239.094-3.239a15.618,15.618,0,0,1-1.91-1.452,31.6,31.6,0,0,1-3.522-3.6c-3.048-3.622,3.051-10.579,3.051-10.579L650.2,544.577s.952-1.715,5.527-8.577,0-10.579,0-10.579l-7.336-4.194c-11.436-6.956-27.544-10.959-27.544-10.959l-.24-.031-3.571-.446Z" transform="translate(-450.885 -377.055)" fill="#efb7b9"/>
    <path id="Path_1096" data-name="Path 1096" d="M672,722.561l1.907,2.19,5.527,2.479,5.241,2.287s5.53.286,5.624,0,.094-3.239.094-3.239a15.614,15.614,0,0,1-1.91-1.452c-.592.317-1.264.912-.615,1.833,0,0,1,1.178.252,1.287a12.275,12.275,0,0,1-2.716-.32l-12.474-6.576-.071-.049Z" transform="translate(-500.415 -527.878)" opacity="0.1"/>
    <path id="Path_1097" data-name="Path 1097" d="M683.8,728.16s1,1.178.249,1.287a12.206,12.206,0,0,1-2.716-.323l-12.471-6.576s-1.358-.964-1.681.929-.535,1.715-.535,1.715-1.644,3.54,0,4.271,11.508,3.617,11.508,3.617,14.33,3.251,15.688-.5-2.43-3.111-2.43-3.111-4.718-1.144-6.324-3.431C685.095,726.05,682.762,726.693,683.8,728.16Z" transform="translate(-496.069 -528.808)" fill="#444053"/>
    <path id="Path_1098" data-name="Path 1098" d="M605.3,282.521c1.653,1.144,4.174,2.953,6.327,2.953a10.551,10.551,0,0,0,1.658-.132,38.65,38.65,0,0,1,2.69-4.44s-12.58-8.769-9.721-3.145C607.2,279.628,606.269,280.546,605.3,282.521Z" transform="translate(-452.785 -210.019)" opacity="0.1"/>
    <path id="Path_1099" data-name="Path 1099" d="M591.43,245.73a10.275,10.275,0,0,0,4.692,8.634,9.451,9.451,0,0,0,1.006.572,10.293,10.293,0,1,0-5.7-9.212Z" transform="translate(-442.88 -181.139)" fill="#efb7b9"/>
    <path id="Path_1100" data-name="Path 1100" d="M602.64,525.229s1.347.492,3.145,1.178a15.166,15.166,0,0,1,2.77-2.13c1.049-.383,4.48-2.384,4.386-2.956s1.43-2.762,2.762-3.145.572-2.382.572-2.382,2.573-.952,3.214-2.287,2.6-3.051,1.933-2.953a2.076,2.076,0,0,1-.812-.317l-3.571-.446Z" transform="translate(-450.885 -377.055)" opacity="0.1"/>
    <path id="Path_1101" data-name="Path 1101" d="M566.154,510.791s4.386,3.622,4.589,5.241,3.131,1.527,3.131,1.527,4.386-4.194,5.432-4.575,4.48-2.384,4.386-2.956,1.43-2.762,2.762-3.145.572-2.382.572-2.382,2.573-.952,3.214-2.287,2.6-3.051,1.933-2.953a4.844,4.844,0,0,1-1.558-.741c-.941-.572-2.133-1.347-3.1-2-1.029-.7-1.815-1.252-1.815-1.252s-.449-.08-1.218-.192c-4.149-.6-17.661-2.133-20.8,2.859a7.567,7.567,0,0,0-.929,2.136C561.345,505.387,566.154,510.791,566.154,510.791Z" transform="translate(-422.216 -366.048)" fill="#444053"/>
    <path id="Path_1102" data-name="Path 1102" d="M575.4,511.37s-4.477,2.527-6.147,2.527S575.4,511.37,575.4,511.37Z" transform="translate(-426.879 -378.184)" opacity="0.1"/>
    <path id="Path_1103" data-name="Path 1103" d="M585.114,517.982s-6.667,2.242-6.667,4S577.823,517.267,585.114,517.982Z" transform="translate(-433.6 -382.865)" opacity="0.1"/>
    <path id="Path_1104" data-name="Path 1104" d="M657.394,482.81l-.094.129A.286.286,0,0,0,657.394,482.81Z" transform="translate(-489.917 -357.789)" opacity="0.1"/>
    <path id="Path_1105" data-name="Path 1105" d="M585.3,320.612l.435.549.243.306,1.515,1.907s3.617,1.161,6.787,1.913c3.3.781,6.118,1.121,3.88-.746-1.39-1.158-1.481-3.1-.975-5.175l-.1-.129s.1,1.927-1.041,1.964c-1.538.049-1.558-.469-2.976-1.066-1.827-.772-3.7-2.061-4.226-3.065a31.342,31.342,0,0,1-3.542,3.542Z" transform="translate(-438.503 -239.436)" opacity="0.1"/>
    <path id="Path_1106" data-name="Path 1106" d="M563.39,491.073a3.3,3.3,0,0,0,2.453.057c2.953-.955,7.625-3.254,9.815-2.247,1.755.806,8.826.783,11.436.106.649-.169,1.021-.377.964-.623a1.716,1.716,0,0,1,.1-.838,15.446,15.446,0,0,1,1.741-3.245l-.189-.723-1.938-1.77-2.648,4.289c-4.149-.6-17.661-2.133-20.8,2.859A7.568,7.568,0,0,0,563.39,491.073Z" transform="translate(-422.857 -357.061)" opacity="0.1"/>
    <path id="Path_1107" data-name="Path 1107" d="M555.7,371.624a3.243,3.243,0,0,0,4.1,1.715c2.953-.952,7.625-3.254,9.815-2.247s12.677.72,12.391-.518,2.573-5.146,2.573-5.146-1.561-.286-2.527-5.384c-.143-.743-.272-1.59-.38-2.55a32.453,32.453,0,0,1-.166-5.93c.386-5.518,2.319-7.771,2.319-7.771a6.415,6.415,0,0,0,.38-7.242c-1.2-2.2-6.033-8.291-6.1-11.008-.06-2.465-2.416-5.329-2.416-5.329s.1,1.927-1.041,1.964c-1.538.049-1.558-.469-2.976-1.066-2.084-.881-4.226-2.433-4.366-3.471,0,0-8.737-.437-10.644,8.426s-1.238,13.724-.952,14.773,2.762,14.581.76,20.3A19.7,19.7,0,0,0,555.7,371.624Z" transform="translate(-417.1 -239.841)" fill="#a36468"/>
    <path id="Path_1108" data-name="Path 1108" d="M592.691,418.916a22.422,22.422,0,0,0,6.193,6.767,42.91,42.91,0,0,1,5,.335c-.143-.743-.286-1.59-.38-2.55a32.453,32.453,0,0,1-.166-5.93,2.159,2.159,0,0,1-1.121-1.384c-.477-1.621-4.729-9.341-4.729-9.341s-9.947-2.573-10.293,0S590.212,414.628,592.691,418.916Z" transform="translate(-439.841 -302.704)" opacity="0.1"/>
    <path id="Path_1109" data-name="Path 1109" d="M592.252,389.984s6,11.359,6.47,12.98a2.19,2.19,0,0,0,2.024,1.618s5.981,1.43,7.411,1.621,13.829,1.238,13.829,1.238,3.145.1,3.525-1.046c.349-1.046,6.424-6.544,9.941-1.747a3.5,3.5,0,0,1,.509,3.122c-.646,2.059-1.973,5.327-3.4,3.294-2-2.859-4.329-2.056-4.329-.532s-3.2.958-4.249,1.172c-.572.117-2.539.64-4.24,1.1a30.877,30.877,0,0,1-6.053,1c-3.377.22-8.354.4-10.118-.263a27.433,27.433,0,0,0-7.434-1.038,2.444,2.444,0,0,1-1.45-.52,22.612,22.612,0,0,1-5.5-6.259c-2.479-4.289-7.577-13.169-7.234-15.742S592.252,389.984,592.252,389.984Z" transform="translate(-436.105 -290.686)" fill="#efb7b9"/>
    <path id="Path_1110" data-name="Path 1110" d="M588.166,334.295a76.952,76.952,0,0,1,4.706,9.149c1.49,3.811,3.3,10.484,3.3,10.484l-8.96-1.049-.76-1.238s-6.4,4-5.635,5.718-1.715-2.573-1.524-7.434-.689-13.535,0-15.631S586.058,332.674,588.166,334.295Z" transform="translate(-434.021 -250.736)" opacity="0.1"/>
    <path id="Path_1111" data-name="Path 1111" d="M579.307,347.931c-.192,4.86,2.287,9.149,1.524,7.434s5.635-5.718,5.635-5.718l.752,1.238,8.958,1.049s-1.81-6.673-3.3-10.484a58.3,58.3,0,0,0-3.065-6.29c-.918-1.667-1.641-2.859-1.641-2.859a10.1,10.1,0,0,0-5.935-1.378,7.688,7.688,0,0,0-.969.117,2.7,2.7,0,0,0-1.856,1.009,1.332,1.332,0,0,0-.114.252C578.61,334.4,579.49,343.071,579.307,347.931Z" transform="translate(-434.026 -249.314)" fill="#a36468"/>
    <path id="Path_1112" data-name="Path 1112" d="M566,437s3.788,5.218,4.932,5.361C570.923,442.372,566.063,441.289,566,437Z" transform="translate(-424.721 -325.077)" opacity="0.1"/>
    <path id="Path_1113" data-name="Path 1113" d="M566,463s7.148,7.219,9.435,7.291S566,463,566,463Z" transform="translate(-424.721 -343.643)" opacity="0.1"/>
    <path id="Path_1114" data-name="Path 1114" d="M566,473.54s4.575,5.361,4.86,5.361S565.918,477.042,566,473.54Z" transform="translate(-424.719 -351.17)" opacity="0.1"/>
    <path id="Path_1115" data-name="Path 1115" d="M580.33,263.81a6.342,6.342,0,0,0,2.1-.7c.246-.129.489-.272.726-.423a17.18,17.18,0,0,0,2.608-2.144,11.1,11.1,0,0,0,3.171-4.426,7.973,7.973,0,0,0,.269-1.235c.326-2.2.051-4.626,1.624-6.121a3.739,3.739,0,0,1,1-.678c2.23-1.061,5.464-.375,7.128-2.287,1.058-1.212,1.032-2.9,1.844-4.214a8.852,8.852,0,0,1,1.584-1.593,10.293,10.293,0,1,0-14.19,14.3c-.063.146-.132.286-.2.437a27.263,27.263,0,0,1-6.241,7.514l.435.549A2.8,2.8,0,0,0,580.33,263.81Z" transform="translate(-434.954 -181.076)" opacity="0.1"/>
    <path id="Path_1116" data-name="Path 1116" d="M467.471,223.793c-1.936,2.219-6,.926-8.134,2.959-1.87,1.781-1.126,4.889-1.89,7.356a11.119,11.119,0,0,1-3.171,4.426c-1.916,1.864-4.366,3.757-6.985,3.222-1.552-.317-3.073-1.478-4.575-.944a5.349,5.349,0,0,0-1.838,1.484,12.668,12.668,0,0,1-7.025,3.634,3,3,0,0,1-1.592-.074c-.8-.326-1.232-1.2-1.961-1.667-1.43-.915-3.265.023-4.749.841a33.231,33.231,0,0,1-27.3,1.964l2.313-1.144c-.492-1-1.821-1.224-2.668-1.958-1.744-1.512-.718-4.537,1.126-5.924s4.231-1.87,6.141-3.165a1.593,1.593,0,0,0,.821-1.078,1.716,1.716,0,0,0-.312-.955c-1.018-1.793-2.144-3.717-1.916-5.767.349-3.145,3.783-5.078,6.936-5.3s6.276.729,9.435.783a6.185,6.185,0,0,0,3.322-.683c1.37-.823,2.059-2.393,2.891-3.757a15.345,15.345,0,0,1,6.147-5.667c2.859-1.444,6.1-1.95,9.069-3.145,3.036-1.218,5.8-3.145,8.975-3.92,4.612-1.144,9.552.352,13.535,2.936,1.918,1.244,8.045,5.235,8.005,7.788-.031,1.515-2,2.336-2.748,3.525C468.5,220.9,468.529,222.581,467.471,223.793Z" transform="translate(-304.04 -159.357)" fill="#693"/>
    <g id="Group_430" data-name="Group 430" transform="translate(92.963 55.551)" opacity="0.1">
      <path id="Path_1117" data-name="Path 1117" d="M422.254,288.8a1.741,1.741,0,0,1,.312.955.966.966,0,0,1-.1.346,12.056,12.056,0,0,1-1.856-4.7A18.186,18.186,0,0,0,422.254,288.8Z" transform="translate(-413.863 -272.371)"/>
      <path id="Path_1118" data-name="Path 1118" d="M397.625,334.222c.843.735,2.173.955,2.668,1.958l-.818.406a9.2,9.2,0,0,1-1.564-.935,2.691,2.691,0,0,1-.892-2.222A2.455,2.455,0,0,0,397.625,334.222Z" transform="translate(-397.01 -306.669)"/>
      <path id="Path_1119" data-name="Path 1119" d="M428.413,268.524c1.484-.818,3.322-1.755,4.749-.841.726.466,1.161,1.341,1.961,1.667a2.993,2.993,0,0,0,1.59.074,12.677,12.677,0,0,0,7.028-3.634,5.264,5.264,0,0,1,1.838-1.484c1.492-.535,3.013.626,4.575.944,2.619.535,5.066-1.358,6.985-3.222a11.093,11.093,0,0,0,3.168-4.426c.766-2.467.023-5.575,1.893-7.356,2.136-2.033,6.2-.741,8.134-2.959,1.055-1.212,1.032-2.9,1.844-4.214.686-1.112,2.465-1.9,2.716-3.242a2.488,2.488,0,0,1,.317,1.144c-.031,1.515-2,2.336-2.748,3.525-.812,1.318-.789,3-1.844,4.214-1.938,2.219-6,.926-8.134,2.959-1.87,1.781-1.126,4.889-1.893,7.356a11.112,11.112,0,0,1-3.168,4.426c-1.918,1.864-4.366,3.757-6.985,3.222-1.555-.317-3.076-1.478-4.575-.943a5.3,5.3,0,0,0-1.838,1.484A12.677,12.677,0,0,1,437,270.851a2.993,2.993,0,0,1-1.59-.074c-.8-.326-1.235-1.2-1.961-1.667-1.43-.915-3.265.023-4.749.841a33.231,33.231,0,0,1-27.3,1.964l1.6-.792A33.294,33.294,0,0,0,428.413,268.524Z" transform="translate(-400.145 -239.83)"/>
    </g>
    <path id="Path_1120" data-name="Path 1120" d="M740.5,595.51l2.4-1.164v-.455a13.37,13.37,0,0,0-3.405.54C740.569,594.621,740.526,595.338,740.5,595.51Z" transform="translate(-548.616 -437.081)" opacity="0.1"/>
    <ellipse id="Ellipse_65" data-name="Ellipse 65" cx="5.793" cy="7.048" rx="5.793" ry="7.048" transform="translate(188.182 118.042)" fill="#465d30"/>
    <path id="Path_1121" data-name="Path 1121" d="M383.734,405.42l-9.312,9.183-30.612-.535,8.417-8.649Z" transform="translate(-245.512 -289.503)" fill="#dda2a6"/>
    <path id="Path_1122" data-name="Path 1122" d="M460.192,436.836V405.42L450.88,414.6v30.741Z" transform="translate(-321.969 -289.503)" fill="#b77b7f"/>
    <path id="Path_1123" data-name="Path 1123" d="M343.81,435.67v31.276h30.612V436.2Z" transform="translate(-245.512 -311.104)" fill="#dda2a6"/>
    <path id="Path_1124" data-name="Path 1124" d="M343.81,435.67v31.276h30.612V436.2Z" transform="translate(-245.512 -311.104)" fill="#fff" opacity="0.3"/>
    <path id="Path_1125" data-name="Path 1125" d="M377.9,457.888l-22.767-3.908-2.968,14.947,23.439,4.306Z" transform="translate(-251.481 -324.179)" fill="#dce0ed"/>
    <path id="Path_1126" data-name="Path 1126" d="M387.268,473.854l-15.3-2.4-.383,2,15.3,2.6Z" transform="translate(-265.342 -336.654)" fill="#693"/>
    <path id="Path_1127" data-name="Path 1127" d="M389.029,491.634l-8.706-1.264-.383,2.216,9.089,1.275Z" transform="translate(-271.312 -350.165)" fill="#693"/>
    <path id="Path_1128" data-name="Path 1128" d="M463.268,432.2l-.415-12.368-2.393,2.362.417,12.4Z" transform="translate(-328.81 -299.793)" fill="#65617d"/>
    <path id="Path_1129" data-name="Path 1129" d="M357.61,416.49l29.417.4.989.558-2.393,2.362-.826-.486-29.137-.826Z" transform="translate(-253.974 -297.407)" fill="#65617d"/>
  </g>
</svg>
