<svg xmlns="http://www.w3.org/2000/svg" width="302.558" height="294.802" viewBox="0 0 302.558 294.802">
  <g id="Group_428" data-name="Group 428" transform="translate(0.558 0)">
    <path id="Path_1040" data-name="Path 1040" d="M154.273,42.475c20.356,7.594,19.284,18.119,27.855,0S219.625,4,247.48,7.215,309.541.85,312.832,32.927s-3.687,42.044,0,73.941,5.357,104.974-4.285,117.83-82.465,56.679-134.961,55.607-74.757-9.968-100.673-36.88-60.057-85.15-34.344-91.578,61.067,47.139,77.137,16.07,0-74.994,5.357-85.708S133.918,34.882,154.273,42.475Z" transform="translate(-30)" fill="rgba(102,153,51,0.1)"/>
    <path id="Path_1004" data-name="Path 1004" d="M674.773,406.335l-3.189,7.441-19.559,25.936s-13.393,14.456-5.953,15.307,12.33-13.393,12.33-13.393l22.96-22.748,2.551-10.417Z" transform="translate(-472.829 -278.856)" fill="#9f616a"/>
    <path id="Path_1005" data-name="Path 1005" d="M714.352,340.168l-3.082.863s-13.838,36.759-12.562,41.224,7.016,9.992,9.567,9.567S714.352,340.168,714.352,340.168Z" transform="translate(-502.628 -242.877)" fill="#693"/>
    <path id="Path_1006" data-name="Path 1006" d="M827.215,749.578s-1.353,6.781,2.714,4.067,6.188-7.963,6.188-7.963Z" transform="translate(-572.433 -463.379)" fill="#2f2e41"/>
    <path id="Path_1007" data-name="Path 1007" d="M684.805,418.916S641.649,571.133,656.955,575.6s37.842-.425,37.629-3.4-4.039-61.865-4.039-61.865,22.323,78.234,49.959,59.951,21.472-21.685,18.921-22.96-41.031-61.865-40.818-73.132-.425-46.558-5.1-51.873Z" transform="translate(-478.184 -285.697)" fill="#2f2e41"/>
    <path id="Path_1008" data-name="Path 1008" d="M349.374,644.967H87.455v-1h262.1Z" transform="translate(-47.554 -350.165)" fill="#3f3d56"/>
    <path id="Path_1009" data-name="Path 1009" d="M777.3,285.95a8.928,8.928,0,0,1-1.109-12.037c-.18.169-.356.344-.524.53a8.929,8.929,0,1,0,13.246,11.977c.168-.186.325-.378.474-.574A8.928,8.928,0,0,1,777.3,285.95Z" transform="translate(-543.266 -206.85)" fill="#2f2e41"/>
    <circle id="Ellipse_37" data-name="Ellipse 37" cx="18.389" cy="18.389" r="18.389" transform="translate(214.806 44.462)" fill="#2f2e41"/>
    <path id="Path_1010" data-name="Path 1010" d="M669,760.936s-4.89,4.89,0,4.89,9.567-3.189,9.567-3.189Z" transform="translate(-485.336 -471.673)" fill="#2f2e41"/>
    <path id="Path_1011" data-name="Path 1011" d="M746.675,285.132s3.189,13.181.85,15.732-7.441,4.464-7.441,4.464l.85,23.81s9.779-3.4,10.2-3.827,9.142-14.244,9.142-14.244l8.5-8.079s-12.968-6.165-9.142-16.795S746.675,285.132,746.675,285.132Z" transform="translate(-525.172 -210.801)" fill="#9f616a"/>
    <circle id="Ellipse_38" data-name="Ellipse 38" cx="11.055" cy="11.055" r="11.055" transform="translate(216.685 77.306) rotate(-80.783)" fill="#9f616a"/>
    <path id="Path_1012" data-name="Path 1012" d="M749.048,372.4s4.89-16.157,7.228-18.283,8.079-22.11,8.079-22.11-3.614-4.89-6.59-4.89-5.74,1.063-9.141,4.252a34.018,34.018,0,0,1-7.167,4.482,7.929,7.929,0,0,1-10.733-3.582,3.114,3.114,0,0,1-.171-3.026s-7.866,2.126-8.291,5.1,0,9.142-.638,10.417-2.551,3.189-1.7,11.267-.888,18.294-.888,18.294C726.976,381.906,737.978,377.228,749.048,372.4Z" transform="translate(-513.726 -235.782)" fill="#693"/>
    <ellipse id="Ellipse_39" data-name="Ellipse 39" cx="9.354" cy="6.378" rx="9.354" ry="6.378" transform="translate(219.909 51.902)" fill="#2f2e41"/>
    <circle id="Ellipse_40" data-name="Ellipse 40" cx="8.929" cy="8.929" r="8.929" transform="translate(236.278 39.997)" fill="#2f2e41"/>
    <path id="Path_1013" data-name="Path 1013" d="M809.822,238.384a8.928,8.928,0,0,1-8.9-8.184c-.02.244-.033.492-.033.743a8.929,8.929,0,0,0,17.858.008v-.008c0-.251-.013-.5-.033-.744A8.928,8.928,0,0,1,809.822,238.384Z" transform="translate(-558.237 -183.08)" fill="#2f2e41"/>
    <path id="Path_1014" data-name="Path 1014" d="M494.914,420.53h-2.97L486.008,472.3l19.577-.657Z" transform="translate(-264.271 -228.667)" fill="#6c63ff"/>
    <path id="Path_1015" data-name="Path 1015" d="M494.914,420.53h-2.97L486.008,472.3l19.577-.657Z" transform="translate(-264.271 -228.667)" fill="#693" opacity="0.2"/>
    <path id="Path_1016" data-name="Path 1016" d="M499.035,419.08l-3.627,52.107,44.433,3.3,3.627-50.789Z" transform="translate(-269.382 -227.878)" fill="#693"/>
    <circle id="Ellipse_41" data-name="Ellipse 41" cx="0.662" cy="0.662" r="0.662" transform="translate(243.952 195.157)" opacity="0.2"/>
    <circle id="Ellipse_42" data-name="Ellipse 42" cx="0.662" cy="0.662" r="0.662" transform="translate(257.803 196.804)" opacity="0.2"/>
    <path id="Path_1017" data-name="Path 1017" d="M818.668,540.977h-.328c0-.141.233-14.052-7.756-15.334a4.2,4.2,0,0,0-3.823,1.058c-3.3,3.271-1.934,12.51-1.921,12.6l-.324.05c-.059-.388-1.4-9.5,2.017-12.884a4.5,4.5,0,0,1,4.106-1.154C818.905,526.637,818.672,540.836,818.668,540.977Z" transform="translate(-560.039 -343.507)" fill="#3f3d56"/>
    <path id="Path_1018" data-name="Path 1018" d="M808.363,402.142,807.3,414.047l2.126,35.716s4.89,18.07-2.551,17.645-4.677-18.921-4.677-18.921l-3.4-41.456Z" transform="translate(-557.097 -276.576)" fill="#9f616a"/>
    <path id="Path_1019" data-name="Path 1019" d="M798.4,331.315l5.527,2.976s7.441,50.573,3.189,55.463-12.968,6.8-13.393,4.89-1.913-40.794-1.913-40.794Z" transform="translate(-553.297 -238.063)" fill="#693"/>
    <path id="Path_1020" data-name="Path 1020" d="M326.627,126.923h-6.2a.822.822,0,0,0-.822.822v2.721a.822.822,0,0,0,.822.822h1.027v4.077H325.6v-4.077h1.027a.822.822,0,0,0,.822-.822v-2.721a.822.822,0,0,0-.822-.822Z" transform="translate(-296.533 -126.923)" fill="#e6e6e6"/>
    <path id="Path_1021" data-name="Path 1021" d="M326.035,156.787a31.874,31.874,0,0,1-5.545-18.9.672.672,0,0,0-.525-.671v-1.176h-6.548v1.16h-.09a.672.672,0,0,0-.671.673q0,.024,0,.049a29.089,29.089,0,0,1-5.226,19.346,1.852,1.852,0,0,0-.335,1.122l.716,22.147a1.917,1.917,0,0,0,1.9,1.85h14.811a1.918,1.918,0,0,0,1.9-1.883L326.7,159a3.881,3.881,0,0,0-.667-2.216Z" transform="translate(-289.731 -131.882)" fill="#e6e6e6"/>
    <path id="Path_1022" data-name="Path 1022" d="M326.527,197.635H313.636a1.324,1.324,0,0,0-1.308,1.525l1.948,12.662h11.186l2.366-12.62a1.324,1.324,0,0,0-1.3-1.567Z" transform="translate(-292.567 -165.373)" fill="#fff"/>
    <path id="Path_1023" data-name="Path 1023" d="M477.9,272.339h-6.2a.822.822,0,0,0-.822.822v2.721a.822.822,0,0,0,.822.822h1.027v4.077h4.145V276.7H477.9a.822.822,0,0,0,.822-.822v-2.721A.822.822,0,0,0,477.9,272.339Z" transform="translate(-378.788 -205.994)" fill="#e6e6e6"/>
    <path id="Path_1024" data-name="Path 1024" d="M477.307,302.2a31.875,31.875,0,0,1-5.545-18.9.672.672,0,0,0-.525-.671v-1.176h-6.548v1.16h-.09a.672.672,0,0,0-.671.673q0,.024,0,.049a29.089,29.089,0,0,1-5.226,19.346,1.851,1.851,0,0,0-.335,1.122l.716,22.147a1.917,1.917,0,0,0,1.9,1.85H475.8a1.918,1.918,0,0,0,1.9-1.883l.276-21.5A3.881,3.881,0,0,0,477.307,302.2Z" transform="translate(-371.986 -210.953)" fill="#e6e6e6"/>
    <path id="Path_1025" data-name="Path 1025" d="M477.8,343.051H464.908a1.324,1.324,0,0,0-1.308,1.525l1.948,12.662h11.186l2.366-12.62a1.323,1.323,0,0,0-1.3-1.567Z" transform="translate(-374.823 -244.444)" fill="#fff"/>
    <path id="Path_1026" data-name="Path 1026" d="M311.922,477.914h-2.941a.39.39,0,0,0-.39.39v1.291a.39.39,0,0,0,.39.39h.487v1.934h1.966v-1.934h.487a.39.39,0,0,0,.39-.39V478.3a.39.39,0,0,0-.39-.39Z" transform="translate(-290.544 -317.777)" fill="#e6e6e6"/>
    <path id="Path_1027" data-name="Path 1027" d="M311.641,492.079a15.119,15.119,0,0,1-2.63-8.964.319.319,0,0,0-.249-.318v-.558h-3.106v.55h-.043a.319.319,0,0,0-.318.319c0,.008,0,.015,0,.023a13.8,13.8,0,0,1-2.479,9.177.879.879,0,0,0-.159.532l.34,10.505a.909.909,0,0,0,.9.878h7.025a.91.91,0,0,0,.9-.893l.131-10.2A1.841,1.841,0,0,0,311.641,492.079Z" transform="translate(-287.318 -320.129)" fill="#e6e6e6"/>
    <rect id="Rectangle_1493" data-name="Rectangle 1493" width="6.703" height="3.352" transform="translate(16.61 175.812)" fill="#fff"/>
    <path id="Path_1028" data-name="Path 1028" d="M341.928,477.914h-2.941a.39.39,0,0,0-.39.39v1.291a.39.39,0,0,0,.39.39h.487v1.934h1.966v-1.934h.487a.39.39,0,0,0,.39-.39V478.3a.39.39,0,0,0-.39-.39Z" transform="translate(-306.86 -317.777)" fill="#e6e6e6"/>
    <path id="Path_1029" data-name="Path 1029" d="M341.647,492.079a15.12,15.12,0,0,1-2.63-8.964.319.319,0,0,0-.249-.318v-.558h-3.106v.55h-.043a.319.319,0,0,0-.318.319c0,.008,0,.015,0,.023a13.8,13.8,0,0,1-2.479,9.177.878.878,0,0,0-.159.532l.34,10.505a.909.909,0,0,0,.9.878h7.025a.91.91,0,0,0,.9-.893l.131-10.2a1.841,1.841,0,0,0-.316-1.051Z" transform="translate(-303.634 -320.129)" fill="#e6e6e6"/>
    <rect id="Rectangle_1494" data-name="Rectangle 1494" width="6.703" height="3.352" transform="translate(30.299 175.812)" fill="#fff"/>
    <path id="Path_1030" data-name="Path 1030" d="M371.934,477.914h-2.94a.39.39,0,0,0-.39.39v1.291a.39.39,0,0,0,.39.39h.487v1.934h1.966v-1.934h.487a.39.39,0,0,0,.39-.39V478.3a.39.39,0,0,0-.39-.39Z" transform="translate(-323.176 -317.777)" fill="#e6e6e6"/>
    <path id="Path_1031" data-name="Path 1031" d="M371.653,492.079a15.12,15.12,0,0,1-2.63-8.964.319.319,0,0,0-.249-.318v-.558h-3.106v.55h-.043a.319.319,0,0,0-.318.319c0,.008,0,.015,0,.023a13.8,13.8,0,0,1-2.479,9.177.878.878,0,0,0-.159.532l.34,10.505a.909.909,0,0,0,.9.878h7.025a.91.91,0,0,0,.9-.893l.131-10.2a1.841,1.841,0,0,0-.316-1.051Z" transform="translate(-319.95 -320.129)" fill="#e6e6e6"/>
    <rect id="Rectangle_1495" data-name="Rectangle 1495" width="6.703" height="3.352" transform="translate(43.989 175.812)" fill="#fff"/>
    <path id="Path_1032" data-name="Path 1032" d="M454.292,421.658h-6.2a.822.822,0,0,0-.822.822V425.2a.822.822,0,0,0,.822.822h1.027V430.1h4.145v-4.077h1.027a.822.822,0,0,0,.822-.822V422.48a.822.822,0,0,0-.822-.822Z" transform="translate(-365.952 -287.188)" fill="#e6e6e6"/>
    <path id="Path_1033" data-name="Path 1033" d="M453.7,451.522a31.874,31.874,0,0,1-5.545-18.9.672.672,0,0,0-.525-.671v-1.176h-6.547v1.16h-.09a.672.672,0,0,0-.671.673q0,.025,0,.049A29.089,29.089,0,0,1,435.1,452a1.852,1.852,0,0,0-.335,1.122l.716,22.147a1.917,1.917,0,0,0,1.9,1.85h14.81a1.918,1.918,0,0,0,1.9-1.883l.276-21.5A3.88,3.88,0,0,0,453.7,451.522Z" transform="translate(-359.15 -292.146)" fill="#e6e6e6"/>
    <path id="Path_1034" data-name="Path 1034" d="M454.192,492.37H441.3a1.324,1.324,0,0,0-1.308,1.525l1.948,12.662h11.186l2.366-12.62a1.324,1.324,0,0,0-1.3-1.567Z" transform="translate(-361.986 -325.638)" fill="#fff"/>
    <path id="Path_1035" data-name="Path 1035" d="M426.033,185.5H389.076c2.584-13.97,1.989-30.838,0-48.979h36.957C424.1,154.662,423.518,171.531,426.033,185.5Z" transform="translate(-334.308 -132.142)" fill="#e6e6e6"/>
    <circle id="Ellipse_43" data-name="Ellipse 43" cx="8.905" cy="8.905" r="8.905" transform="translate(64.564 18.628)" fill="#fff"/>
    <path id="Path_1036" data-name="Path 1036" d="M351.861,327.988H314.9c2.584-13.97,1.989-30.838,0-48.979h36.957C349.925,297.15,349.346,314.019,351.861,327.988Z" transform="translate(-293.977 -209.621)" fill="#e6e6e6"/>
    <circle id="Ellipse_44" data-name="Ellipse 44" cx="8.905" cy="8.905" r="8.905" transform="translate(30.723 83.636)" fill="#fff"/>
    <path id="Path_1037" data-name="Path 1037" d="M471.9,192.332H434.945c2.584-13.97,1.989-30.838,0-48.979H471.9C469.966,161.494,469.387,178.363,471.9,192.332Z" transform="translate(-359.25 -135.857)" fill="#e6e6e6"/>
    <circle id="Ellipse_45" data-name="Ellipse 45" cx="8.905" cy="8.905" r="8.905" transform="translate(85.491 21.744)" fill="#fff"/>
    <path id="Path_1038" data-name="Path 1038" d="M471.9,187.452H434.945c2.584-13.97,1.989-30.838,0-48.979H471.9C469.966,156.614,469.387,173.483,471.9,187.452Z" transform="translate(-359.25 -133.203)" fill="#e6e6e6"/>
    <circle id="Ellipse_46" data-name="Ellipse 46" cx="8.905" cy="8.905" r="8.905" transform="translate(85.491 19.518)" fill="#fff"/>
    <path id="Path_1039" data-name="Path 1039" d="M471.9,192.332H434.945c2.584-13.97,1.989-30.838,0-48.979H471.9C469.966,161.494,469.387,178.363,471.9,192.332Z" transform="translate(-359.25 -135.857)" fill="#e6e6e6"/>
    <circle id="Ellipse_47" data-name="Ellipse 47" cx="8.905" cy="8.905" r="8.905" transform="translate(85.491 21.744)" fill="#fff"/>
    <rect id="Rectangle_1496" data-name="Rectangle 1496" width="121.113" height="13.358" transform="translate(0 50.687)" fill="#707070"/>
    <rect id="Rectangle_1497" data-name="Rectangle 1497" width="121.113" height="13.358" transform="translate(0 117.031)" fill="#707070"/>
    <rect id="Rectangle_1498" data-name="Rectangle 1498" width="121.113" height="13.358" transform="translate(0 183.376)" fill="#707070"/>
  </g>
</svg>
