<svg xmlns="http://www.w3.org/2000/svg" width="302" height="165.349" viewBox="0 0 302 165.349">
  <g id="Group_439" data-name="Group 439" transform="translate(1664 -1234)">
    <g id="Group_438" data-name="Group 438" transform="translate(-1664 1234)">
      <path id="Path_1176" data-name="Path 1176" d="M253.792,568.453a49.16,49.16,0,0,1-36.772-48.332,19.753,19.753,0,0,1,1.484-8.034,9.092,9.092,0,0,1,5.975-5.233c2.924-.644,6.01.672,8.189,2.726a25,25,0,0,1,4.923,7.453c7.918,16.2,13.935,33.591,16.187,51.485Z" transform="translate(-198.807 -404.379)" fill="#f2f2f2"/>
      <path id="Path_1177" data-name="Path 1177" d="M234.665,507.886l5.55,12.609,5.55,12.609c1.758,3.993,3.512,7.989,5.329,11.956,1.8,3.932,3.663,7.837,5.65,11.679s4.093,7.61,6.382,11.274q.428.684.863,1.363c.2.313.7.023.5-.293-2.333-3.636-4.482-7.387-6.5-11.208s-3.9-7.717-5.721-11.641c-1.826-3.945-3.582-7.922-5.334-11.9l-5.53-12.564-5.55-12.609-.691-1.569c-.15-.341-.651-.046-.5.293Z" transform="translate(-210.319 -404.87)" fill="#fff"/>
      <path id="Path_1178" data-name="Path 1178" d="M253.208,637.745a28.767,28.767,0,0,1-32.139-15.166,11.559,11.559,0,0,1-1.4-4.572,5.32,5.32,0,0,1,1.689-4.33,5.506,5.506,0,0,1,4.988-.8,14.63,14.63,0,0,1,4.568,2.54,96.75,96.75,0,0,1,22.3,22.36Z" transform="translate(-200.537 -473.584)" fill="#f2f2f2"/>
      <path id="Path_1179" data-name="Path 1179" d="M222.862,616.893l6.285,5.048,6.285,5.048c1.991,1.6,3.98,3.2,5.994,4.769,2,1.555,4.018,3.08,6.086,4.538s4.179,2.846,6.357,4.13q.407.24.816.475c.189.108.372-.178.181-.287-2.193-1.258-4.321-2.625-6.4-4.065s-4.111-2.953-6.113-4.5-4-3.146-5.982-4.738l-6.263-5.03-6.286-5.048-.782-.628c-.17-.137-.35.152-.181.288Z" transform="translate(-202.582 -476.161)" fill="#fff"/>
      <path id="Path_1180" data-name="Path 1180" d="M884.781,521.63a68.555,68.555,0,0,0,51.281-67.4,27.546,27.546,0,0,0-2.069-11.2c-1.608-3.472-4.6-6.474-8.332-7.3-4.078-.9-8.381.937-11.42,3.8s-5.032,6.642-6.865,10.393c-11.043,22.6-19.433,46.844-22.574,71.8Z" transform="translate(-635.039 -357.873)" fill="#f2f2f2"/>
      <path id="Path_1181" data-name="Path 1181" d="M929.525,437.168l-7.739,17.584-7.738,17.585c-2.451,5.569-4.9,11.141-7.431,16.673-2.511,5.484-5.108,10.929-7.879,16.287s-5.707,10.613-8.9,15.722q-.6.954-1.2,1.9c-.281.437-.982.032-.7-.409,3.253-5.071,6.251-10.3,9.062-15.629s5.445-10.762,7.978-16.234c2.547-5.5,5-11.047,7.438-16.6q3.856-8.76,7.711-17.521l7.74-17.584.963-2.188c.209-.476.907-.064.7.409Z" transform="translate(-637.057 -358.558)" fill="#fff"/>
      <path id="Path_1182" data-name="Path 1182" d="M894.065,618.262a40.116,40.116,0,0,0,44.819-21.15,16.121,16.121,0,0,0,1.95-6.375,7.419,7.419,0,0,0-2.356-6.038,7.678,7.678,0,0,0-6.955-1.11,20.4,20.4,0,0,0-6.37,3.543c-11.833,8.751-22.735,19.074-31.1,31.182Z" transform="translate(-641.094 -454.382)" fill="#f2f2f2"/>
      <path id="Path_1183" data-name="Path 1183" d="M940.065,589.182l-8.765,7.04-8.765,7.04c-2.776,2.23-5.55,4.462-8.359,6.65-2.784,2.169-5.6,4.3-8.488,6.329s-5.828,3.969-8.865,5.76q-.567.335-1.138.662c-.264.151-.518-.249-.253-.4,3.058-1.755,6.026-3.661,8.924-5.668s5.732-4.118,8.525-6.275,5.576-4.387,8.342-6.608l8.733-7.015,8.765-7.04,1.091-.876c.237-.19.488.212.253.4Z" transform="translate(-641.924 -457.975)" fill="#fff"/>
      <path id="Path_1184" data-name="Path 1184" d="M331.6,356.417v0l-2.892,2.417-19.885,4.417a5.027,5.027,0,0,0,3.769,9.32l12.666-2.132a15.538,15.538,0,0,0,2.073-.492c.267-.08.531-.17.791-.263a80.9,80.9,0,0,1,4.722-14.306Z" transform="translate(-256.727 -305.533)" fill="#2f2e41"/>
      <path id="Path_1185" data-name="Path 1185" d="M824.391,355.679l-2.756-.017-1.474-.007-8.443-14.76a4.143,4.143,0,0,0,.184-.475c.94-2.9-1.539-4.892-3.9-4.851a3.41,3.41,0,0,0-.8.094,81.211,81.211,0,0,1,9.213,27.1,4.708,4.708,0,0,0,.732.146,15.623,15.623,0,0,0,3.862-.132,30.818,30.818,0,0,1,4.213-.461Z" transform="translate(-584.36 -292.59)" fill="#a0616a"/>
      <path id="Path_1186" data-name="Path 1186" d="M859.021,391.7l-10.131-1.408a1.562,1.562,0,0,0-1.713,1.11,1.584,1.584,0,0,0-.049.222l-.811,5.835a1.57,1.57,0,0,0,1.328,1.761l10.131,1.408a4.507,4.507,0,0,0,1.245-8.928Z" transform="translate(-609.903 -328.33)" fill="#6c63ff"/>
      <path id="Path_1187" data-name="Path 1187" d="M526.591,281.933a81.574,81.574,0,0,0-9.147-27.339A82.62,82.62,0,0,0,368.674,262.5v0a81.349,81.349,0,0,0-4.268,13.529,82.523,82.523,0,1,0,162.185,5.9Zm-81.637,93.991A81.881,81.881,0,1,1,526.782,294.1,81.921,81.921,0,0,1,444.954,375.924Z" transform="translate(-293.804 -211.615)" fill="#3f3d56"/>
      <path id="Path_1188" data-name="Path 1188" d="M490.527,360.18a17.334,17.334,0,1,1,12.178-5,17.333,17.333,0,0,1-12.178,5Zm0-33.979a16.644,16.644,0,1,0,16.643,16.643A16.644,16.644,0,0,0,490.527,326.2Z" transform="translate(-366.162 -286.02)" fill="#3f3d56"/>
      <path id="Path_1189" data-name="Path 1189" d="M644.519,360.173a17.336,17.336,0,1,1,17.336-17.336A17.336,17.336,0,0,1,644.519,360.173Zm0-33.979a16.643,16.643,0,1,0,16.643,16.643A16.643,16.643,0,0,0,644.519,326.193Z" transform="translate(-466.758 -286.013)" fill="#3f3d56"/>
      <path id="Path_1190" data-name="Path 1190" d="M512.632,396.086a16.994,16.994,0,0,1-23.869,0,13.18,13.18,0,0,1,23.869,0Z" transform="translate(-376.332 -327.169)" fill="#3f3d56"/>
      <path id="Path_1191" data-name="Path 1191" d="M666.632,396.086a16.994,16.994,0,0,1-23.869,0,13.18,13.18,0,0,1,23.869,0Z" transform="translate(-476.936 -327.169)" fill="#3f3d56"/>
      <path id="Path_1192" data-name="Path 1192" d="M568.183,450.967c0-1.915,6.209-3.467,13.869-3.467s13.869,1.552,13.869,3.467-6.209,9.015-13.869,9.015S568.183,452.882,568.183,450.967Z" transform="translate(-428.215 -365.712)" fill="#3f3d56"/>
      <circle id="Ellipse_79" data-name="Ellipse 79" cx="5.894" cy="5.894" r="5.894" transform="translate(101.655 72.946)" fill="#ff6584"/>
      <circle id="Ellipse_80" data-name="Ellipse 80" cx="5.894" cy="5.894" r="5.894" transform="translate(188.857 73.12)" fill="#ff6584"/>
      <path id="Path_1193" data-name="Path 1193" d="M197.858,432.47h4.251l2.022-16.4h-6.274Z" transform="translate(-129.254 -271.849)" fill="#ffb8b8"/>
      <path id="Path_1194" data-name="Path 1194" d="M0,0H13.36V5.162h-8.2A5.162,5.162,0,0,1,0,0Z" transform="translate(81.051 165.262) rotate(179.997)" fill="#2f2e41"/>
      <path id="Path_1195" data-name="Path 1195" d="M136.858,432.47h4.251l2.022-16.4h-6.274Z" transform="translate(-89.405 -271.849)" fill="#ffb8b8"/>
      <path id="Path_1196" data-name="Path 1196" d="M0,0H13.36V5.162h-8.2A5.162,5.162,0,0,1,0,0Z" transform="translate(59.901 165.262) rotate(179.997)" fill="#2f2e41"/>
      <path id="Path_1197" data-name="Path 1197" d="M322.03,482.131l3.737,29.606q.771,6.105,1.078,12.255l1.007,20.134a1.387,1.387,0,0,1-1.385,1.456H320.8a1.387,1.387,0,0,1-1.371-1.179l-5.1-33.6a.693.693,0,0,0-1.367-.023l-6.145,32.91a1.387,1.387,0,0,1-1.257,1.1l-5.22.331a1.387,1.387,0,0,1-1.487-1.427l1.686-53.938Z" transform="translate(-252.265 -388.336)" fill="#2f2e41"/>
      <circle id="Ellipse_81" data-name="Ellipse 81" cx="8.516" cy="8.516" r="8.516" transform="translate(44.694 34.594)" fill="#ffb8b8"/>
      <path id="Path_1198" data-name="Path 1198" d="M289.82,416.244c2.08,4.854,11.1,8.321,13.176,1.387,1.609-5.36,7.982-7.614,10.794-8.36a1.392,1.392,0,0,0,.992-1.685l-7.86-30.876a10.846,10.846,0,0,0-21.2.818,47.547,47.547,0,0,0-.551,5.464C284.522,396.616,288.45,413.047,289.82,416.244Z" transform="translate(-243.285 -314.127)" fill="#693"/>
      <path id="Path_1199" data-name="Path 1199" d="M402.179,424.743a3.487,3.487,0,0,0-5.154,1.422L384.69,425l3.024,5.684,11.25.233a3.506,3.506,0,0,0,3.215-6.176Z" transform="translate(-308.344 -350.442)" fill="#ffb8b8"/>
      <path id="Path_1200" data-name="Path 1200" d="M341.852,403.173a1.562,1.562,0,0,1-1.162.518l-16.1-.368A16.079,16.079,0,0,1,314,399.331l-9.655-8.468a5.026,5.026,0,0,1,4.839-8.811l15.99,12.618,15.569,3a1.565,1.565,0,0,1,1.183,1.348l.32,2.944a1.562,1.562,0,0,1-.18.914,1.545,1.545,0,0,1-.21.3Z" transform="translate(-254.151 -322.551)" fill="#2f2e41"/>
      <path id="Path_1201" data-name="Path 1201" d="M291.311,320.828a1.389,1.389,0,0,0,2.047-.821l0-.019a6.642,6.642,0,0,0-.018-1.984,2.486,2.486,0,0,1,.472-1.879c.842-.909,2.34-.427,3.557-.657a3,3,0,0,0,2.337-3.208c-.017-.138-.045-.276-.075-.414a2.314,2.314,0,0,1,2.4-2.8c1.23.07,2.558.443,3.576-.468a2.638,2.638,0,0,0,.633-2.844c-.581-1.678-2.224-2.556-3.849-3.039a14.084,14.084,0,0,0-11.938,1.959,6.321,6.321,0,0,0-2.423,2.81,3.077,3.077,0,0,0,.76,3.44,6.356,6.356,0,0,0-1.472,6.174C287.811,318.647,290.138,320.153,291.311,320.828Z" transform="translate(-244.565 -270.752)" fill="#2f2e41"/>
      <path id="Path_1202" data-name="Path 1202" d="M652.313,432.282h-4.251l-2.022-16.4h6.274Z" transform="translate(-422.04 -271.727)" fill="#a0616a"/>
      <path id="Path_1203" data-name="Path 1203" d="M633.391,461.671h8.2v5.162h-13.36a5.162,5.162,0,0,1,5.162-5.162Z" transform="translate(-410.404 -301.637)" fill="#2f2e41"/>
      <path id="Path_1204" data-name="Path 1204" d="M739.313,432.282h-4.25l-2.023-16.4h6.274Z" transform="translate(-478.875 -271.727)" fill="#a0616a"/>
      <path id="Path_1205" data-name="Path 1205" d="M720.391,461.671h8.2v5.162h-13.36a5.162,5.162,0,0,1,5.162-5.162Z" transform="translate(-467.239 -301.637)" fill="#2f2e41"/>
      <path id="Path_1206" data-name="Path 1206" d="M814.236,512.6c-.046,0-.092,0-.139-.006l-6.016-.481a1.734,1.734,0,0,1-1.573-2l9.122-56.42.611-7.958a1.724,1.724,0,0,1,1.358-1.561l9.175-2.007a1.722,1.722,0,0,1,1.8.714l2.237,3.27a38.291,38.291,0,0,0,2.859,3.644,19.579,19.579,0,0,1,4.528,12.39,43.911,43.911,0,0,0,.671,6.433l7.386,39.791a1.733,1.733,0,0,1-1.539,2l-5.7.432a1.726,1.726,0,0,1-1.838-1.276l-10.116-37.62a.347.347,0,0,0-.67,0L815.91,511.31a1.735,1.735,0,0,1-1.675,1.287Z" transform="translate(-583.891 -362.197)" fill="#2f2e41"/>
      <circle id="Ellipse_82" data-name="Ellipse 82" cx="8.516" cy="8.516" r="8.516" transform="translate(237.828 37.363)" fill="#a0616a"/>
      <path id="Path_1207" data-name="Path 1207" d="M832.871,404.86l-.176-12.161c-.649-7.778,2.8-11.862,5.8-13.916a6.906,6.906,0,0,1,5.341-1.022l6.7,1.449a7.064,7.064,0,0,1,4.526,3.224,6.6,6.6,0,0,1,.753,5.2,7.142,7.142,0,0,1-2.912,3.988,15.572,15.572,0,0,0-6.168,10.963l-.007.141Z" transform="translate(-600.961 -320.049)" fill="#693"/>
      <path id="Path_1208" data-name="Path 1208" d="M766.954,419.017a3.826,3.826,0,0,1-5.72.165c-3.359-3.522,2.132-8.811,5.5-5.281h0a3.71,3.71,0,0,1,.33.388l17-.423,2.029-3.711,6.236,2.421c-1.2,1.857-2.572,9.143-5.7,8.788C786.218,421.376,767.374,419.047,766.954,419.017Z" transform="translate(-553.645 -341.316)" fill="#a0616a"/>
      <path id="Path_1209" data-name="Path 1209" d="M835.141,397.929l-4.752-3.487a1.562,1.562,0,0,1-.335-2.181l6.052-8.246a4.507,4.507,0,1,1,7.268,5.334l-6.052,8.246A1.562,1.562,0,0,1,835.141,397.929Z" transform="translate(-599.091 -323.036)" fill="#527b28"/>
      <path id="Path_1210" data-name="Path 1210" d="M853.8,318.824a13.9,13.9,0,0,1-3.716.64,4.687,4.687,0,0,1-3.423-1.345,4.283,4.283,0,0,1-.258-5,7.016,7.016,0,0,1,4.354-2.914,20.775,20.775,0,0,1,5.343-.391,6.629,6.629,0,0,1,7.41.157,10.5,10.5,0,0,1,4.082,6.535,26.514,26.514,0,0,1,.228,7.862c-.118,1.437,0,3.3,1.376,3.744a2.477,2.477,0,0,0,2.424-.9c.621-.665,1.055-1.492,1.7-2.13a5.324,5.324,0,0,1,5.431-.986,8.755,8.755,0,0,1,4.313,3.741,13.015,13.015,0,0,1-14.78,19.363c-4.689-1.408-8.229-5.365-10.508-9.7a32.033,32.033,0,0,1-3.474-18.176Z" transform="translate(-609.525 -275.074)" fill="#2f2e41"/>
      <path id="Path_1211" data-name="Path 1211" d="M466.153,687.193H164.847a.347.347,0,0,1,0-.693H466.153a.347.347,0,0,1,0,.693Z" transform="translate(-164.5 -521.844)" fill="#3f3d56"/>
    </g>
  </g>
</svg>
