<svg xmlns="http://www.w3.org/2000/svg" width="14.12" height="14.12" viewBox="0 0 14.12 14.12">
  <path id="Icon_material-help" data-name="Icon material-help" d="M10.06,3a7.06,7.06,0,1,0,7.06,7.06A7.063,7.063,0,0,0,10.06,3Zm.706,12H9.354V13.59h1.412Zm1.461-5.472-.635.65a2.4,2.4,0,0,0-.826,2H9.354v-.353a2.842,2.842,0,0,1,.826-2l.875-.89a1.38,1.38,0,0,0,.417-1,1.412,1.412,0,1,0-2.824,0H7.236a2.824,2.824,0,1,1,5.648,0A2.247,2.247,0,0,1,12.227,9.531Z" transform="translate(-3 -3)" fill="#fff"/>
</svg>
