<svg xmlns="http://www.w3.org/2000/svg" width="19.669" height="17.242" viewBox="0 0 19.669 17.242">
  <path id="Icon_map-food" data-name="Icon map-food" d="M20.345,7.427,18.733,20.066H13.287l-1.606-12.7h6.649l1.314-4.539.745.225L19.128,7.417l1.217.009Zm-9.434,7.313s.2-1.639-2.62-1.639h-4.5c-2.82,0-2.62,1.639-2.62,1.639h9.738ZM1.172,18.427s-.2,1.639,2.62,1.639h4.5c2.824,0,2.62-1.639,2.62-1.639H1.172Zm9.316-.82a.942.942,0,0,0,.836-1.024.941.941,0,0,0-.836-1.025H1.556A.943.943,0,0,0,.72,16.584a.944.944,0,0,0,.836,1.024h8.932Z" transform="translate(-0.72 -2.825)" fill="#fff"/>
</svg>
