<svg xmlns="http://www.w3.org/2000/svg" width="13.672" height="13.904" viewBox="0 0 13.672 13.904">
  <g id="Icon_feather-phone-forwarded" data-name="Icon feather-phone-forwarded" transform="translate(0.5 0.707)">
    <path id="Path_1286" data-name="Path 1286" d="M28.5,1.5l2.427,2.427L28.5,6.353" transform="translate(-18.255 -1.5)" fill="none" stroke="#707070" stroke-linecap="round" stroke-linejoin="round" stroke-width="1"/>
    <path id="Path_1287" data-name="Path 1287" d="M22.5,7.5h4.853" transform="translate(-14.682 -5.073)" fill="none" stroke="#707070" stroke-linecap="round" stroke-linejoin="round" stroke-width="1"/>
    <path id="Path_1288" data-name="Path 1288" d="M15.233,12.051v1.82a1.213,1.213,0,0,1-1.322,1.213,12.005,12.005,0,0,1-5.235-1.862,11.83,11.83,0,0,1-3.64-3.64,12.005,12.005,0,0,1-1.862-5.26A1.213,1.213,0,0,1,4.38,3H6.2A1.213,1.213,0,0,1,7.413,4.043a7.789,7.789,0,0,0,.425,1.7,1.213,1.213,0,0,1-.273,1.28l-.77.77a9.706,9.706,0,0,0,3.64,3.64l.77-.77a1.213,1.213,0,0,1,1.28-.273,7.789,7.789,0,0,0,1.7.425,1.213,1.213,0,0,1,1.043,1.231Z" transform="translate(-3.168 -2.393)" fill="none" stroke="#707070" stroke-linecap="round" stroke-linejoin="round" stroke-width="1"/>
  </g>
</svg>
