<svg xmlns="http://www.w3.org/2000/svg" width="114.753" height="69.338" viewBox="0 0 114.753 69.338"><path d="M168.317,163.546a14.471,14.471,0,0,0-4.124-4.2H170.3Z" transform="translate(-92.611 -100.786)" fill="#fff"/><g transform="translate(0 50.973)"><g transform="translate(0 0)"><path d="M116.839,80.8h-3.315q-1.062-1.886-1.574-2.912T110.879,75.6a47.327,47.327,0,0,1-2.961,5.2H104.7q-.671-1.21-1.276-2.523t-1.127-2.727q-.521-1.415-.968-2.906a33.235,33.235,0,0,1-.987-4.76,45.072,45.072,0,0,1-.373-5.411h4.88A35.619,35.619,0,0,0,107.117,75.6q.764-1.835,1.9-4.729a25.031,25.031,0,0,1-.447-2.5q-.168-1.306-.261-2.893t-.093-3h5.308a42.316,42.316,0,0,1-.782,8.4q.336,1.045.782,2.288t.968,2.441a41.676,41.676,0,0,0,2.347-13.128H121.5A42.878,42.878,0,0,1,116.839,80.8Z" transform="translate(-99.965 -62.468)" fill="#fff"/><path d="M264.571,81.748V64.205h4.936V81.834h-11.79A6.74,6.74,0,0,1,256.3,79.7l4.638-2.354A4.961,4.961,0,0,0,264.571,81.748Z" transform="translate(-190.041 -63.469)" fill="#fff"/><path d="M302.7,72.851l4.973-1.692V74.6L302.7,72.925v8.753a8.277,8.277,0,0,0,2.272-1.214,9.3,9.3,0,0,0,1.75-1.5l2.235,2.807H297.783V64.147h11.175l-2.049,2.844a11.758,11.758,0,0,0-4.209-2.8Z" transform="translate(-213.942 -63.435)" fill="#fff"/><path d="M343.473,81.8H331.534V64.176h11.939Q347.962,68.1,347.962,73,347.962,77.931,343.473,81.8Zm-7-17.518V81.719A14.85,14.85,0,0,0,339.6,79.9a9.663,9.663,0,0,0,2.421-2.893A7.967,7.967,0,0,0,343.044,73a8.157,8.157,0,0,0-2.011-5.394A10.963,10.963,0,0,0,336.47,64.287Z" transform="translate(-233.388 -63.452)" fill="#fff"/></g><g transform="translate(18.873 0.288)"><g transform="translate(0 15.555)"><path d="M146.251,99.847l-1.756,2.347v.078h12.977V99.847Z" transform="translate(-144.495 -99.847)" fill="#f7ac08"/></g><g transform="translate(8.401 3.728)"><path d="M182.756,76.669a13.1,13.1,0,0,1,12.07,8.066,13.246,13.246,0,0,1,.509,1.459h5.86a19.082,19.082,0,0,0-36.88,0h5.86a13.426,13.426,0,0,1,.509-1.459A13.1,13.1,0,0,1,182.756,76.669Z" transform="translate(-164.316 -71.942)" fill="#f7ac08"/></g><g transform="translate(7.606 5.199)"><path d="M164.2,75.413l-1.756,2.347v.078h12.977V75.413Z" transform="translate(-162.441 -75.413)" fill="#f7ac08"/></g><g transform="translate(3.927 10.21)"><path d="M155.516,87.237l-1.756,2.347v.078h12.977V87.237Z" transform="translate(-153.76 -87.237)" fill="#f7ac08"/></g><path d="M202.56,63.147a3.727,3.727,0,0,0-2.812,1.252,3.676,3.676,0,0,0-1.145,2.734,3.858,3.858,0,0,0,6.639,2.767,3.773,3.773,0,0,0,1.177-2.8,3.843,3.843,0,0,0-1.177-2.8A3.66,3.66,0,0,0,202.56,63.147Z" transform="translate(-175.67 -63.147)" fill="#f7ac08"/></g></g><g transform="translate(-77.825 -199.83)"><g transform="translate(77.825 199.83)"><g transform="translate(0 9.303)"><path d="M99.787,240.7a21.354,21.354,0,0,0-3.648-13.554A15.694,15.694,0,0,0,84.2,220.424l-1.16,4.9A11.313,11.313,0,0,1,91.4,229.1q3.7,4.108,3.769,11.6H79.323l-1.5,4.446H99.818Q99.8,242.918,99.787,240.7Z" transform="translate(-77.825 -220.424)" fill="#fff"/><path d="M207.866,286.038a3.335,3.335,0,0,0-2.509,1.109,3.245,3.245,0,0,0-1.021,2.421,3.294,3.294,0,0,0,.992,2.421,3.5,3.5,0,0,0,5.981-2.45,3.392,3.392,0,0,0-1.05-2.48A3.276,3.276,0,0,0,207.866,286.038Z" transform="translate(-147.184 -256.397)" fill="#fff"/><path d="M179.221,263.254H125.626v5.368h51.166Z" transform="translate(-104.032 -243.906)" fill="#fff"/></g><path d="M263.416,200.3l5.63-.467v43.381h-5.63Z" transform="translate(-179.575 -199.83)" fill="#fff"/><path d="M308.646,238.2a11.819,11.819,0,0,1-1.977,6.979q-2.952,4.2-9.955,4.636l-3.636-4.392a17.835,17.835,0,0,0,5.856-.927q5.22-1.782,5.222-6.393v-2.806l-3.953,1.781q-6.15-1.2-8.906-5.368a10.858,10.858,0,0,1-1.489-8.491,13.854,13.854,0,0,1,4.71-7.882,14.436,14.436,0,0,1,9.662-3.464,15.781,15.781,0,0,1,4.466.61Zm-4.49-22.155a8.067,8.067,0,0,0-6.808,2,9.23,9.23,0,0,0-3,5.856,7.958,7.958,0,0,0,1.44,6.149q2.2,2.831,6.564,2.831a12.136,12.136,0,0,0,1.806-.122Z" transform="translate(-193.893 -206.43)" fill="#fff"/></g><path d="M130.067,283.8" transform="translate(-28.642 -46.039)" fill="#fff"/><g transform="translate(110.272 210.596)"><g transform="translate(0 14.515)"><path d="M151.3,255.791l-1.65,2.19v.073h12.2v-2.262Z" transform="translate(-149.65 -255.791)" fill="#f7ac08"/></g><g transform="translate(7.895 3.478)"><path d="M184.457,235.772a12.269,12.269,0,0,1,11.822,8.888h5.507a17.947,17.947,0,0,0-34.659,0h5.508a12.264,12.264,0,0,1,11.822-8.888Z" transform="translate(-167.127 -231.362)" fill="#f7ac08"/></g><g transform="translate(7.148 4.851)"><path d="M167.124,234.4l-1.65,2.19v.073h12.2V234.4Z" transform="translate(-165.474 -234.4)" fill="#f7ac08"/></g><g transform="translate(3.691 9.527)"><path d="M159.47,244.751l-1.65,2.19v.073h12.2v-2.262Z" transform="translate(-157.82 -244.751)" fill="#f7ac08"/></g><path d="M201.077,223.662a3.515,3.515,0,0,0-2.643,1.168,3.419,3.419,0,0,0-1.076,2.551,3.471,3.471,0,0,0,1.045,2.551,3.688,3.688,0,0,0,6.3-2.581,3.572,3.572,0,0,0-1.106-2.612A3.451,3.451,0,0,0,201.077,223.662Z" transform="translate(-175.806 -223.662)" fill="#f7ac08"/></g></g></svg>