<svg xmlns="http://www.w3.org/2000/svg" width="10" height="7" viewBox="0 0 10 7">
  <path id="Icon_awesome-car-side" data-name="Icon awesome-car-side" d="M8.5,4.75H8.25L6.55,2.625a1,1,0,0,0-.781-.375H2.427a1,1,0,0,0-.928.629L.75,4.785A1,1,0,0,0,0,5.75V7.5a.25.25,0,0,0,.25.25H1a1.5,1.5,0,0,0,3,0H6a1.5,1.5,0,0,0,3,0h.75A.25.25,0,0,0,10,7.5V6.25A1.5,1.5,0,0,0,8.5,4.75ZM2.5,8.5a.75.75,0,1,1,.75-.75A.751.751,0,0,1,2.5,8.5ZM3.625,4.75h-1.8l.6-1.5h1.2Zm.75,0V3.25H5.769l1.2,1.5ZM7.5,8.5a.75.75,0,1,1,.75-.75A.751.751,0,0,1,7.5,8.5Z" transform="translate(0 -2.25)" fill="#693"/>
</svg>
