<svg xmlns="http://www.w3.org/2000/svg" width="10" height="8.313" viewBox="0 0 10 8.313">
  <path id="Icon_awesome-store" data-name="Icon awesome-store" d="M9.777,1.926,8.723.244A.52.52,0,0,0,8.283,0H1.724a.52.52,0,0,0-.44.244L.23,1.926A1.448,1.448,0,0,0,1.185,4.14a1.687,1.687,0,0,0,.222.015,1.6,1.6,0,0,0,1.2-.537,1.6,1.6,0,0,0,2.4,0,1.6,1.6,0,0,0,2.4,0,1.608,1.608,0,0,0,1.2.537,1.669,1.669,0,0,0,.222-.015A1.447,1.447,0,0,0,9.777,1.926ZM8.6,4.676a2.06,2.06,0,0,1-.479-.062v1.62H1.886V4.614a2.151,2.151,0,0,1-.479.062,2.191,2.191,0,0,1-.292-.019A2.042,2.042,0,0,1,.849,4.6v3.2a.519.519,0,0,0,.52.52H8.642a.519.519,0,0,0,.52-.52V4.6a1.658,1.658,0,0,1-.266.058A2.258,2.258,0,0,1,8.6,4.676Z" transform="translate(-0.004)" fill="#693"/>
</svg>
