<svg xmlns="http://www.w3.org/2000/svg" width="20.705" height="20.705" viewBox="0 0 20.705 20.705">
  <g id="Icon_feather-instagram" data-name="Icon feather-instagram" transform="translate(1 1)">
    <path id="Path_1224" data-name="Path 1224" d="M7.676,3h9.352A4.676,4.676,0,0,1,21.7,7.676v9.352A4.676,4.676,0,0,1,17.029,21.7H7.676A4.676,4.676,0,0,1,3,17.029V7.676A4.676,4.676,0,0,1,7.676,3Z" transform="translate(-3 -3)" fill="none" stroke="#000" stroke-linecap="round" stroke-linejoin="round" stroke-width="2"/>
    <path id="Path_1225" data-name="Path 1225" d="M19.506,15.127a3.741,3.741,0,1,1-3.152-3.152,3.741,3.741,0,0,1,3.152,3.152Z" transform="translate(-6.413 -6.364)" fill="none" stroke="#000" stroke-linecap="round" stroke-linejoin="round" stroke-width="2"/>
    <path id="Path_1226" data-name="Path 1226" d="M26.25,9.75h0" transform="translate(-11.754 -5.541)" fill="none" stroke="#000" stroke-linecap="round" stroke-linejoin="round" stroke-width="2"/>
  </g>
</svg>
