<svg id="Icon_ionic-ios-log-in" data-name="Icon ionic-ios-log-in" xmlns="http://www.w3.org/2000/svg" width="16" height="13.604" viewBox="0 0 16 13.604">
  <path id="Path_1220" data-name="Path 1220" d="M19,5.625H8.176A1.778,1.778,0,0,0,6.4,7.4a.541.541,0,0,0,1.082,0,.7.7,0,0,1,.7-.7H19a.7.7,0,0,1,.7.7V17.451a.7.7,0,0,1-.7.7H8.176a.7.7,0,0,1-.7-.7.541.541,0,1,0-1.082,0,1.778,1.778,0,0,0,1.778,1.778H19a1.778,1.778,0,0,0,1.778-1.778V7.4A1.778,1.778,0,0,0,19,5.625Z" transform="translate(-4.775 -5.625)" fill="#fff"/>
  <path id="Path_1221" data-name="Path 1221" d="M10.209,17.786a.546.546,0,0,0,0,.765l0,0a.559.559,0,0,0,.379.151.522.522,0,0,0,.383-.158l3.192-3.185a.759.759,0,0,0,0-1.129L10.9,10.973a.538.538,0,0,0-.383-.158.528.528,0,0,0-.383.158.539.539,0,0,0,0,.765l2.52,2.481H3.986a.541.541,0,1,0,0,1.082h8.68Z" transform="translate(-3.445 -7.962)" fill="#fff"/>
</svg>
