<svg xmlns="http://www.w3.org/2000/svg" width="16" height="15.647" viewBox="0 0 16 15.647">
  <path id="Icon_material-notifications-active" data-name="Icon material-notifications-active" d="M7.5,5.018,6.351,3.87a8.365,8.365,0,0,0-3.306,6.3h1.6A6.777,6.777,0,0,1,7.5,5.018Zm9.942,5.151h1.6a8.416,8.416,0,0,0-3.306-6.3L14.6,5.018A6.817,6.817,0,0,1,17.44,10.169Zm-1.581.4A4.889,4.889,0,0,0,12.249,5.5V4.954a1.2,1.2,0,1,0-2.407,0V5.5A4.875,4.875,0,0,0,6.231,10.57v4.012l-1.6,1.6v.8H17.464v-.8l-1.6-1.6ZM11.045,19.4a1.406,1.406,0,0,0,.321-.032,1.628,1.628,0,0,0,1.155-.947,1.611,1.611,0,0,0,.12-.626H9.432A1.616,1.616,0,0,0,11.045,19.4Z" transform="translate(-3.045 -3.75)" fill="#fff"/>
</svg>
