<svg xmlns="http://www.w3.org/2000/svg" width="13.714" height="16" viewBox="0 0 13.714 16">
  <path id="Icon_metro-language" data-name="Icon metro-language" d="M10.609,11.828q-.009.027-.112,0t-.281-.1l-.179-.08a5.35,5.35,0,0,1-.777-.437q-.062-.045-.366-.281t-.339-.254a15.211,15.211,0,0,1-1.2,1.616,6.637,6.637,0,0,1-.937.982.708.708,0,0,1-.174.036.344.344,0,0,1-.165,0q.054-.036.732-.821.187-.214.763-1.027a12.483,12.483,0,0,0,.7-1.054q.152-.268.455-.879a6.96,6.96,0,0,0,.321-.692,7.337,7.337,0,0,0-.982.295Q8,9.141,7.828,9.19l-.308.085a1.53,1.53,0,0,0-.152.045.152.152,0,0,0-.018.094.2.2,0,0,1-.009.085q-.045.089-.277.134a.72.72,0,0,1-.42,0,.377.377,0,0,1-.25-.187.454.454,0,0,1-.045-.205,1.725,1.725,0,0,1,.219-.045,2.666,2.666,0,0,0,.263-.054Q7.35,9,7.77,8.855q.893-.312.911-.312a1.981,1.981,0,0,0,.384-.174,4.039,4.039,0,0,1,.393-.192q.08-.027.192-.071t.129-.049a.12.12,0,0,1,.054,0,1.016,1.016,0,0,1-.009.295,1.9,1.9,0,0,1-.112.241q-.112.223-.237.478t-.152.3a13.391,13.391,0,0,1-.687,1.17l.571.25q.107.054.665.286l.6.25q.036.009.094.228a.676.676,0,0,1,.04.272ZM8.779,7.489a.362.362,0,0,1-.036.25.809.809,0,0,1-.446.339,1.433,1.433,0,0,1-.536.107.739.739,0,0,1-.437-.232.671.671,0,0,1-.161-.366l.009-.027a.382.382,0,0,0,.174.045.776.776,0,0,0,.237,0q.089-.018.518-.143a2.549,2.549,0,0,1,.491-.125.176.176,0,0,1,.188.152Zm6.232,1.152.562,2.027-1.241-.375ZM5.118,15.784l6.2-2.071V4.5l-6.2,2.08v9.205Zm11.08-2.83.911.277L15.493,7.364,14.6,7.087l-1.929,4.786.911.277.4-.982,1.884.58ZM11.707,4.364l5.116,1.643V2.614Zm2.777,11.812,1.411.116-.482,1.429-.357-.589a6.619,6.619,0,0,1-2.464.964,4.279,4.279,0,0,1-.812.107h-.75a6.035,6.035,0,0,1-1.781-.348A5.929,5.929,0,0,1,7.609,17.1a.186.186,0,0,1-.071-.143.173.173,0,0,1,.045-.121.15.15,0,0,1,.116-.049.5.5,0,0,1,.161.067L8.132,17l.183.1a7.911,7.911,0,0,0,1.424.549,5.2,5.2,0,0,0,1.406.219,7.619,7.619,0,0,0,1.491-.129,7.359,7.359,0,0,0,1.4-.451q.134-.063.272-.138l.3-.17q.165-.094.254-.147Zm4-9.634v9.634l-6.911-2.2q-.125.054-3.348,1.138T4.94,16.2a.161.161,0,0,1-.161-.116.069.069,0,0,0-.009-.027V6.436a.4.4,0,0,1,.036-.089.4.4,0,0,1,.179-.1q.946-.312,1.33-.446V2.373L11.3,4.141q.018,0,1.433-.491t2.821-.969Q16.957,2.2,16.993,2.2q.179,0,.179.188V6.123Z" transform="translate(-4.77 -2.203)" fill="#fff"/>
</svg>
