<svg xmlns="http://www.w3.org/2000/svg" width="16.278" height="16.25" viewBox="0 0 16.278 16.25">
  <g id="Group_469" data-name="Group 469" transform="translate(-68.875 4.125)">
    <g id="Group_468" data-name="Group 468" transform="translate(69 -4)">
      <g id="Group_451" data-name="Group 451" transform="translate(0)">
        <g id="Group_450" data-name="Group 450">
          <path id="Path_1212" data-name="Path 1212" d="M12,9V1.667A1.669,1.669,0,0,0,10.334,0H3a.333.333,0,0,0-.236.1L.1,2.764A.333.333,0,0,0,0,3V14.333A1.669,1.669,0,0,0,1.668,16h8.667A1.669,1.669,0,0,0,12,14.333v-.667h-.667v.667a1,1,0,0,1-1,1H1.668a1,1,0,0,1-1-1V3.138L3.139.667h7.2a1,1,0,0,1,1,1V9Z" transform="translate(-0.001)" fill="#fff" stroke="#fff" stroke-width="0.25"/>
        </g>
      </g>
      <g id="Group_453" data-name="Group 453" transform="translate(1.667 0.333)">
        <g id="Group_452" data-name="Group 452">
          <path id="Path_1213" data-name="Path 1213" d="M54.334,10.667v2A.333.333,0,0,1,54,13h-.667v.667H54a1,1,0,0,0,1-1v-2Z" transform="translate(-53.334 -10.667)" fill="#fff" stroke="#fff" stroke-width="0.25"/>
        </g>
      </g>
      <g id="Group_455" data-name="Group 455" transform="translate(9.333 7)">
        <g id="Group_454" data-name="Group 454">
          <path id="Path_1214" data-name="Path 1214" d="M305.239,225.023l-.923-.923a.333.333,0,0,0-.471,0l-5.077,5.077a.333.333,0,0,0,0,.471l.923.923a.333.333,0,0,0,.471,0l5.077-5.077A.333.333,0,0,0,305.239,225.023Zm-5.313,4.841-.452-.452,4.606-4.606.452.452Z" transform="translate(-298.67 -224.002)" fill="#fff" stroke="#fff" stroke-width="0.25"/>
        </g>
      </g>
      <g id="Group_457" data-name="Group 457" transform="translate(9.333 12.333)">
        <g id="Group_456" data-name="Group 456">
          <path id="Path_1215" data-name="Path 1215" d="M299.335,395.334v-.667h-.667v1A.333.333,0,0,0,299,396h1v-.667Z" transform="translate(-298.668 -394.667)" fill="#fff" stroke="#fff" stroke-width="0.25"/>
        </g>
      </g>
      <g id="Group_459" data-name="Group 459" transform="translate(9 1.333)">
        <g id="Group_458" data-name="Group 458">
          <path id="Path_1216" data-name="Path 1216" d="M288.668,42.667H288v.667h.667a.333.333,0,0,1,.333.333v.667h.667v-.667A1,1,0,0,0,288.668,42.667Z" transform="translate(-288.001 -42.667)" fill="#fff" stroke="#fff" stroke-width="0.25"/>
        </g>
      </g>
      <g id="Group_461" data-name="Group 461" transform="translate(3 4.667)">
        <g id="Group_460" data-name="Group 460">
          <path id="Path_1217" data-name="Path 1217" d="M101.668,149.333H96.334a.333.333,0,0,0-.333.333v4.667a.333.333,0,0,0,.187.3l2.318,1.133a1.013,1.013,0,0,0,.5.133h0a.95.95,0,0,0,.472-.122l2.336-1.144a.333.333,0,0,0,.187-.3v-4.667A.333.333,0,0,0,101.668,149.333Zm-.333,4.792-2.168,1.063a.347.347,0,0,1-.349-.01l-2.149-1.053V150h4.667v4.125Z" transform="translate(-96.001 -149.333)" fill="#fff" stroke="#fff" stroke-width="0.25"/>
        </g>
      </g>
      <g id="Group_463" data-name="Group 463" transform="translate(4.431 6.482)">
        <g id="Group_462" data-name="Group 462">
          <path id="Path_1218" data-name="Path 1218" d="M144.792,207.413l-1.764,1.764-.764-.764-.471.471,1,1a.333.333,0,0,0,.471,0l2-2Z" transform="translate(-141.792 -207.413)" fill="#fff" stroke="#fff" stroke-width="0.25"/>
        </g>
      </g>
      <g id="Group_465" data-name="Group 465" transform="translate(5.667 12)">
        <g id="Group_464" data-name="Group 464">
          <path id="Path_1219" data-name="Path 1219" d="M182.334,385a.333.333,0,0,1-.333-.333V384h-.667v.667a1,1,0,0,0,1,1h2V385Z" transform="translate(-181.334 -384)" fill="#fff" stroke="#fff" stroke-width="0.25"/>
        </g>
      </g>
      <g id="Group_467" data-name="Group 467" transform="translate(7.667 1.333)">
        <g id="Group_466" data-name="Group 466">
          <rect id="Rectangle_1513" data-name="Rectangle 1513" width="0.667" height="0.667" fill="#fff" stroke="#fff" stroke-width="0.25"/>
        </g>
      </g>
    </g>
  </g>
</svg>
