<svg xmlns="http://www.w3.org/2000/svg" width="23.807" height="19.347" viewBox="0 0 23.807 19.347">
  <path id="Icon_metro-twitter" data-name="Icon metro-twitter" d="M26.377,7.108a9.765,9.765,0,0,1-2.805.769,4.9,4.9,0,0,0,2.148-2.7,9.778,9.778,0,0,1-3.1,1.185A4.889,4.889,0,0,0,14.3,10.814a13.866,13.866,0,0,1-10.067-5.1A4.889,4.889,0,0,0,5.74,12.232a4.864,4.864,0,0,1-2.212-.611c0,.02,0,.041,0,.061a4.887,4.887,0,0,0,3.918,4.789,4.892,4.892,0,0,1-2.206.084A4.889,4.889,0,0,0,9.8,19.947a9.8,9.8,0,0,1-6.066,2.091,9.906,9.906,0,0,1-1.165-.068,13.824,13.824,0,0,0,7.487,2.195,13.8,13.8,0,0,0,13.9-13.9q0-.318-.014-.632a9.922,9.922,0,0,0,2.437-2.528Z" transform="translate(-2.571 -4.817)"/>
</svg>
