<svg xmlns="http://www.w3.org/2000/svg" width="21.744" height="21.744" viewBox="0 0 21.744 21.744">
  <path id="Icon_awesome-globe-asia" data-name="Icon awesome-globe-asia" d="M10.872.563A10.872,10.872,0,1,0,21.744,11.435,10.872,10.872,0,0,0,10.872.563Zm-.5,10.532a.7.7,0,0,1-.6.341H9.76a.7.7,0,0,0-.5.206l-.248.248a.351.351,0,0,0,0,.5l.248.248a.7.7,0,0,1,.206.5v.411a.7.7,0,0,1-.7.7H8.5a.7.7,0,0,1-.627-.388L6.881,11.87a.351.351,0,0,0-.562-.091l-.854.853a.7.7,0,0,1-.5.206H2.227A8.751,8.751,0,0,1,13.574,3.1l-2.2,1.689a.351.351,0,0,0,.038.605l.475.237a.7.7,0,0,1,.388.627V9.681a.351.351,0,0,1-.351.351H11.79a.35.35,0,0,1-.313-.194.194.194,0,0,0-.34-.013Zm7.511,4.831a.7.7,0,0,1-.206.5l-.42.42a.7.7,0,0,1-.5.206H16.1a.7.7,0,0,1-.5-.206l-.57-.57a1.173,1.173,0,0,0-1.114-.309l-.932.233a.7.7,0,0,1-.17.021h-.453a.7.7,0,0,1-.5-.206l-.522-.522a.351.351,0,0,1-.1-.248v-.447a.351.351,0,0,1,.221-.326l1.725-.69a1.175,1.175,0,0,0,.245-.134l1.039-.74a.35.35,0,0,1,.2-.065h.53a.351.351,0,0,1,.324.216l.235.563a.175.175,0,0,0,.162.108h.167a.175.175,0,0,0,.168-.126l.184-.634a.175.175,0,0,1,.168-.126h.266a.175.175,0,0,1,.175.175v.567a.351.351,0,0,0,.1.248l.522.522a.7.7,0,0,1,.206.5v1.078Z" transform="translate(0 -0.563)"/>
</svg>
