<svg xmlns="http://www.w3.org/2000/svg" width="21.548" height="21.547">
  <path id="Icon_ionic-md-settings" data-name="Icon ionic-md-settings" d="M22.331,15.226a6.738,6.738,0,0,0,.055-1.077c0-.377-.055-.7-.055-1.077l2.314-1.778a.5.5,0,0,0,.11-.7l-2.2-3.717a.537.537,0,0,0-.661-.216L19.135,7.738a8.019,8.019,0,0,0-1.873-1.077l-.386-2.855a.59.59,0,0,0-.551-.431H11.917a.59.59,0,0,0-.551.431l-.441,2.855A9.33,9.33,0,0,0,9.052,7.738L6.3,6.661a.516.516,0,0,0-.661.216l-2.2,3.717a.651.651,0,0,0,.11.7l2.369,1.778c0,.377-.055.7-.055,1.077s.055.7.055,1.077L3.6,17a.5.5,0,0,0-.11.7l2.2,3.717a.537.537,0,0,0,.661.216l2.755-1.077a8.018,8.018,0,0,0,1.873,1.077l.441,2.855a.534.534,0,0,0,.551.431H16.38a.59.59,0,0,0,.551-.431l.441-2.855a9.325,9.325,0,0,0,1.873-1.077L22,21.637a.516.516,0,0,0,.661-.216l2.2-3.717a.65.65,0,0,0-.11-.7Zm-8.21,2.693a3.772,3.772,0,1,1,3.857-3.771A3.791,3.791,0,0,1,14.121,17.92Z" transform="translate(-3.375 -3.375)" fill="#b7b7b7"/>
</svg>
