<svg xmlns="http://www.w3.org/2000/svg" width="17.386" height="23.416" viewBox="0 0 17.386 23.416">
  <g id="Component_5_1" data-name="Component 5 – 1" transform="translate(0 1.25)">
    <path id="Path" d="M0,4.965l.36-2.5a2.88,2.88,0,0,1,5.7,0L6.42,5" transform="translate(5.176)" fill="none" stroke="#693" stroke-linecap="round" stroke-linejoin="round" stroke-miterlimit="10" stroke-width="2.5"/>
    <circle id="Oval" cx="1" cy="1" r="1" transform="translate(4.886 8.965)" fill="none" stroke="#111" stroke-linecap="round" stroke-linejoin="round" stroke-miterlimit="10" stroke-width="1"/>
    <circle id="Oval-2" data-name="Oval" cx="1" cy="1" r="1" transform="translate(9.886 8.965)" fill="none" stroke="#111" stroke-linecap="round" stroke-linejoin="round" stroke-miterlimit="10" stroke-width="1"/>
    <path id="Path-2" data-name="Path" d="M15.766,17.2H1.006a1.022,1.022,0,0,1-.749-.316.928.928,0,0,1-.251-.745L1.786.851a.985.985,0,0,1,1-.85H14a.985.985,0,0,1,1,.85l1.78,15.29a.929.929,0,0,1-.254.748A1.022,1.022,0,0,1,15.766,17.2Z" transform="translate(0 4.965)" fill="#693"/>
    <path id="Path-3" data-name="Path" d="M6.17.5H0" transform="translate(10.216 16.465)" fill="none" stroke="#fff" stroke-linecap="round" stroke-linejoin="round" stroke-miterlimit="10" stroke-width="2"/>
  </g>
</svg>
